<?xml version="1.0" encoding="UTF-8"?>
<!DOCTYPE svg PUBLIC "-//W3C//DTD SVG 1.1//EN" "http://www.w3.org/Graphics/SVG/1.1/DTD/svg11.dtd">
<!-- Creator: CorelDRAW 2020 (64 Bit) -->
<svg xmlns="http://www.w3.org/2000/svg" xml:space="preserve" width="60px" height="60px" version="1.1" style="shape-rendering:geometricPrecision; text-rendering:geometricPrecision; image-rendering:optimizeQuality; fill-rule:evenodd; clip-rule:evenodd"
viewBox="0 0 59.99 60.12"
 xmlns:xlink="http://www.w3.org/1999/xlink"
 xmlns:xodm="http://www.corel.com/coreldraw/odm/2003">
 <defs>
  <style type="text/css">
   <![CDATA[
    .str0 {stroke:#D9B500;stroke-width:0.03;stroke-miterlimit:22.9256}
    .fil1 {fill:none;fill-rule:nonzero}
    .fil0 {fill:#D9B500;fill-rule:nonzero}
   ]]>
  </style>
 </defs>
 <g id="Camada_x0020_1">
  <metadata id="CorelCorpID_0Corel-Layer"/>
  <g id="_2060747021264">
   <g>
    <path class="fil0" d="M58.89 29.19l-0.56 0 0 0 -0.03 -1.47 -0.11 -1.46 -0.19 -1.43 -0.25 -1.41 -0.32 -1.39 -0.38 -1.36 -0.45 -1.33 -0.52 -1.3 -0.57 -1.27 -0.63 -1.23 -0.69 -1.2 -0.75 -1.16 -0.79 -1.12 -0.86 -1.09 -0.9 -1.04 -0.94 -0.99 -1 -0.95 -1.04 -0.9 -1.08 -0.85 -1.12 -0.8 -1.16 -0.74 -1.2 -0.69 -1.24 -0.64 -1.27 -0.57 -1.3 -0.51 -1.33 -0.45 -1.36 -0.39 -1.38 -0.32 -1.41 -0.25 -1.44 -0.18 -1.45 -0.11 -1.48 -0.04 0 -0.55 1.51 0.04 1.48 0.11 1.46 0.19 1.44 0.25 1.41 0.33 1.38 0.39 1.36 0.46 1.33 0.52 1.29 0.59 1.26 0.64 1.22 0.71 1.19 0.76 1.14 0.81 1.1 0.87 1.06 0.91 1.02 0.97 0.96 1.01 0.92 1.06 0.87 1.11 0.81 1.14 0.76 1.18 0.7 1.23 0.65 1.26 0.58 1.29 0.52 1.32 0.46 1.36 0.4 1.39 0.32 1.41 0.26 1.44 0.18 1.46 0.12 1.48 0.04 1.5 0 0zm-29.2 29.19l0 -0.55 0 0 1.48 -0.04 1.45 -0.11 1.44 -0.18 1.41 -0.25 1.38 -0.32 1.36 -0.39 1.33 -0.45 1.3 -0.51 1.27 -0.57 1.24 -0.63 1.2 -0.69 1.16 -0.75 1.12 -0.8 1.08 -0.85 1.04 -0.9 1 -0.95 0.94 -0.99 0.9 -1.04 0.86 -1.08 0.79 -1.13 0.75 -1.16 0.69 -1.2 0.63 -1.23 0.57 -1.27 0.52 -1.3 0.45 -1.33 0.38 -1.36 0.32 -1.39 0.25 -1.41 0.19 -1.43 0.11 -1.45 0.03 -1.48 0.56 0 -0.04 1.5 -0.12 1.49 -0.18 1.46 -0.26 1.43 -0.32 1.42 -0.4 1.38 -0.46 1.36 -0.52 1.32 -0.58 1.3 -0.65 1.26 -0.7 1.22 -0.76 1.18 -0.81 1.15 -0.87 1.1 -0.92 1.06 -0.96 1.01 -1.02 0.97 -1.06 0.92 -1.1 0.86 -1.14 0.82 -1.19 0.76 -1.22 0.7 -1.26 0.64 -1.29 0.59 -1.33 0.52 -1.36 0.46 -1.38 0.39 -1.41 0.33 -1.44 0.26 -1.46 0.18 -1.48 0.11 -1.51 0.04 0 0zm-29.19 -29.19l0.55 0 0 0 0.04 1.48 0.11 1.45 0.18 1.43 0.26 1.41 0.32 1.39 0.38 1.36 0.45 1.33 0.51 1.3 0.58 1.27 0.63 1.23 0.69 1.2 0.74 1.16 0.8 1.13 0.85 1.08 0.9 1.04 0.95 0.99 1 0.95 1.04 0.9 1.08 0.85 1.12 0.8 1.16 0.75 1.2 0.69 1.24 0.63 1.27 0.57 1.3 0.51 1.33 0.45 1.36 0.39 1.38 0.32 1.41 0.25 1.44 0.18 1.45 0.11 1.47 0.04 0 0.55 -1.5 -0.04 -1.48 -0.11 -1.46 -0.18 -1.44 -0.26 -1.41 -0.33 -1.39 -0.39 -1.35 -0.46 -1.33 -0.52 -1.29 -0.59 -1.26 -0.64 -1.22 -0.7 -1.19 -0.76 -1.14 -0.82 -1.1 -0.86 -1.06 -0.92 -1.02 -0.97 -0.96 -1.01 -0.92 -1.06 -0.87 -1.1 -0.81 -1.15 -0.76 -1.18 -0.7 -1.22 -0.65 -1.26 -0.58 -1.3 -0.53 -1.32 -0.45 -1.36 -0.4 -1.38 -0.32 -1.42 -0.26 -1.43 -0.19 -1.46 -0.11 -1.49 -0.04 -1.5 0 0zm29.19 -29.19l0 0.55 0 0 -1.47 0.04 -1.45 0.11 -1.44 0.18 -1.41 0.25 -1.38 0.32 -1.36 0.39 -1.33 0.45 -1.3 0.51 -1.27 0.57 -1.24 0.64 -1.2 0.69 -1.16 0.74 -1.12 0.8 -1.08 0.85 -1.04 0.9 -1 0.95 -0.95 0.99 -0.9 1.04 -0.85 1.09 -0.8 1.12 -0.74 1.16 -0.69 1.2 -0.63 1.23 -0.58 1.27 -0.51 1.3 -0.45 1.33 -0.38 1.36 -0.32 1.39 -0.26 1.41 -0.18 1.43 -0.11 1.46 -0.04 1.47 -0.55 0 0.04 -1.5 0.11 -1.48 0.19 -1.46 0.26 -1.44 0.32 -1.41 0.4 -1.39 0.45 -1.36 0.53 -1.32 0.58 -1.29 0.65 -1.26 0.7 -1.23 0.76 -1.18 0.81 -1.14 0.87 -1.11 0.92 -1.06 0.96 -1.01 1.02 -0.97 1.06 -0.91 1.1 -0.87 1.14 -0.81 1.19 -0.76 1.22 -0.71 1.26 -0.64 1.29 -0.59 1.33 -0.52 1.35 -0.46 1.39 -0.39 1.41 -0.33 1.44 -0.25 1.46 -0.19 1.48 -0.11 1.5 -0.04 0 0z"/>
   </g>
   <g>
    <path class="fil0" d="M57.23 31.3l-0.55 0 0 0 -0.03 -1.46 -0.11 -1.43 -0.18 -1.42 -0.25 -1.39 -0.31 -1.37 -0.38 -1.34 -0.44 -1.31 -0.5 -1.29 -0.57 -1.25 -0.62 -1.22 -0.67 -1.18 -0.73 -1.15 -0.78 -1.11 -0.84 -1.06 -0.88 -1.03 -0.93 -0.98 -0.97 -0.94 -1.02 -0.89 -1.06 -0.84 -1.1 -0.78 -1.14 -0.74 -1.18 -0.68 -1.21 -0.62 -1.24 -0.57 -1.27 -0.51 -1.31 -0.44 -1.33 -0.38 -1.36 -0.32 -1.38 -0.25 -1.4 -0.17 -1.43 -0.11 -1.44 -0.04 0 -0.55 1.47 0.04 1.45 0.11 1.43 0.18 1.41 0.25 1.39 0.33 1.36 0.38 1.33 0.46 1.3 0.51 1.26 0.58 1.24 0.64 1.2 0.69 1.16 0.75 1.12 0.8 1.08 0.86 1.04 0.91 0.99 0.95 0.95 1 0.9 1.05 0.85 1.09 0.8 1.13 0.74 1.16 0.69 1.21 0.63 1.24 0.57 1.28 0.52 1.31 0.45 1.34 0.38 1.37 0.32 1.39 0.25 1.42 0.19 1.44 0.11 1.46 0.03 1.49 0 0zm-28.61 28.82l0 -0.55 0 0 1.44 -0.04 1.43 -0.11 1.4 -0.18 1.38 -0.25 1.36 -0.31 1.33 -0.38 1.31 -0.45 1.27 -0.51 1.24 -0.56 1.21 -0.63 1.18 -0.68 1.14 -0.73 1.1 -0.79 1.06 -0.84 1.02 -0.89 0.97 -0.93 0.93 -0.98 0.88 -1.03 0.84 -1.07 0.78 -1.11 0.73 -1.14 0.67 -1.19 0.62 -1.22 0.57 -1.25 0.5 -1.28 0.44 -1.32 0.38 -1.34 0.31 -1.36 0.25 -1.4 0.18 -1.41 0.11 -1.44 0.03 -1.45 0.55 0 -0.03 1.48 -0.11 1.46 -0.19 1.45 -0.25 1.41 -0.32 1.4 -0.38 1.37 -0.45 1.34 -0.52 1.3 -0.57 1.28 -0.63 1.24 -0.69 1.21 -0.74 1.17 -0.8 1.13 -0.85 1.09 -0.9 1.04 -0.95 1.01 -0.99 0.95 -1.04 0.91 -1.08 0.85 -1.12 0.8 -1.16 0.75 -1.2 0.7 -1.24 0.63 -1.26 0.58 -1.3 0.52 -1.33 0.45 -1.36 0.39 -1.39 0.32 -1.41 0.25 -1.43 0.19 -1.45 0.11 -1.47 0.04 0 0zm-28.62 -28.82l0.55 0 0 0 0.04 1.45 0.11 1.44 0.17 1.41 0.25 1.4 0.31 1.36 0.38 1.34 0.44 1.32 0.51 1.28 0.56 1.25 0.62 1.22 0.67 1.19 0.73 1.14 0.79 1.11 0.83 1.07 0.88 1.03 0.93 0.98 0.98 0.93 1.02 0.89 1.06 0.84 1.1 0.79 1.13 0.73 1.18 0.68 1.21 0.63 1.24 0.56 1.28 0.51 1.3 0.45 1.33 0.38 1.36 0.31 1.38 0.25 1.41 0.18 1.42 0.11 1.45 0.04 0 0.55 -1.48 -0.04 -1.45 -0.11 -1.43 -0.19 -1.41 -0.25 -1.39 -0.32 -1.35 -0.39 -1.33 -0.45 -1.3 -0.52 -1.27 -0.58 -1.23 -0.63 -1.2 -0.7 -1.16 -0.75 -1.13 -0.8 -1.08 -0.85 -1.04 -0.91 -0.99 -0.95 -0.95 -1.01 -0.9 -1.04 -0.85 -1.09 -0.79 -1.13 -0.75 -1.17 -0.69 -1.21 -0.63 -1.24 -0.57 -1.28 -0.51 -1.3 -0.45 -1.34 -0.39 -1.37 -0.32 -1.4 -0.25 -1.41 -0.18 -1.45 -0.11 -1.46 -0.04 -1.48 0 0zm28.62 -28.82l0 0.55 0 0 -1.45 0.04 -1.42 0.11 -1.41 0.17 -1.38 0.25 -1.36 0.32 -1.33 0.38 -1.3 0.44 -1.28 0.51 -1.24 0.57 -1.21 0.62 -1.18 0.68 -1.13 0.74 -1.1 0.78 -1.06 0.84 -1.02 0.89 -0.98 0.94 -0.93 0.98 -0.88 1.03 -0.83 1.06 -0.79 1.11 -0.73 1.15 -0.67 1.18 -0.62 1.22 -0.56 1.25 -0.51 1.29 -0.44 1.31 -0.38 1.34 -0.31 1.37 -0.25 1.39 -0.17 1.42 -0.11 1.43 -0.04 1.46 -0.55 0 0.04 -1.49 0.11 -1.46 0.18 -1.44 0.25 -1.42 0.32 -1.39 0.39 -1.37 0.45 -1.34 0.51 -1.31 0.57 -1.28 0.63 -1.24 0.69 -1.21 0.75 -1.16 0.79 -1.13 0.85 -1.09 0.9 -1.05 0.95 -1 0.99 -0.95 1.04 -0.91 1.08 -0.86 1.13 -0.8 1.16 -0.75 1.2 -0.69 1.23 -0.64 1.27 -0.58 1.3 -0.51 1.33 -0.46 1.35 -0.38 1.39 -0.33 1.41 -0.25 1.43 -0.18 1.45 -0.11 1.48 -0.04 0 0z"/>
   </g>
   <g>
    <path class="fil0" d="M59.99 30.43l-0.55 0 0 0 -0.04 -1.41 -0.11 -1.39 -0.19 -1.37 -0.26 -1.35 -0.32 -1.33 -0.39 -1.3 -0.46 -1.27 -0.52 -1.24 -0.58 -1.21 -0.65 -1.19 -0.7 -1.14 -0.76 -1.11 -0.81 -1.08 -0.86 -1.03 -0.92 -1 -0.96 -0.95 -1.02 -0.91 -1.05 -0.86 -1.1 -0.81 -1.15 -0.77 -1.18 -0.71 -1.22 -0.66 -1.26 -0.61 -1.29 -0.55 -1.32 -0.49 -1.36 -0.43 -1.38 -0.37 -1.41 -0.3 -1.44 -0.24 -1.46 -0.18 -1.48 -0.1 -1.5 -0.04 0 -0.55 1.53 0.03 1.51 0.11 1.48 0.18 1.46 0.25 1.44 0.31 1.41 0.37 1.38 0.44 1.34 0.5 1.32 0.56 1.28 0.62 1.24 0.67 1.21 0.73 1.16 0.78 1.12 0.83 1.08 0.87 1.03 0.93 0.99 0.97 0.93 1.01 0.88 1.06 0.83 1.09 0.77 1.14 0.72 1.17 0.66 1.2 0.59 1.24 0.53 1.27 0.47 1.3 0.4 1.33 0.33 1.35 0.26 1.38 0.19 1.4 0.12 1.42 0.04 1.44 0 0zm-29.7 27.95l0 -0.55 0 0 1.5 -0.04 1.48 -0.11 1.46 -0.17 1.44 -0.24 1.41 -0.31 1.38 -0.37 1.36 -0.43 1.32 -0.49 1.29 -0.55 1.26 -0.6 1.22 -0.67 1.18 -0.71 1.15 -0.76 1.1 -0.82 1.05 -0.86 1.02 -0.91 0.96 -0.95 0.92 -0.99 0.86 -1.04 0.81 -1.07 0.76 -1.11 0.7 -1.15 0.65 -1.18 0.58 -1.21 0.52 -1.25 0.46 -1.27 0.39 -1.3 0.32 -1.32 0.26 -1.35 0.19 -1.37 0.11 -1.39 0.04 -1.41 0.55 0 -0.04 1.44 -0.12 1.42 -0.19 1.4 -0.26 1.37 -0.33 1.36 -0.4 1.32 -0.47 1.3 -0.53 1.27 -0.59 1.24 -0.66 1.21 -0.72 1.17 -0.77 1.13 -0.83 1.1 -0.88 1.05 -0.93 1.02 -0.99 0.97 -1.03 0.92 -1.08 0.88 -1.12 0.83 -1.16 0.78 -1.21 0.72 -1.24 0.68 -1.28 0.61 -1.32 0.56 -1.34 0.5 -1.38 0.44 -1.41 0.38 -1.44 0.31 -1.46 0.24 -1.48 0.18 -1.51 0.11 -1.53 0.04 0 0zm-29.69 -27.95l0.55 0 0 0 0.03 1.41 0.12 1.39 0.18 1.37 0.26 1.35 0.32 1.32 0.4 1.3 0.45 1.27 0.52 1.25 0.59 1.21 0.64 1.18 0.7 1.15 0.76 1.11 0.81 1.07 0.87 1.04 0.91 0.99 0.97 0.95 1.01 0.91 1.06 0.86 1.1 0.82 1.14 0.76 1.18 0.71 1.22 0.67 1.26 0.6 1.29 0.55 1.33 0.49 1.35 0.43 1.38 0.37 1.41 0.31 1.44 0.24 1.46 0.17 1.48 0.11 1.5 0.04 0 0.55 -1.53 -0.04 -1.5 -0.11 -1.49 -0.18 -1.46 -0.24 -1.44 -0.31 -1.4 -0.38 -1.38 -0.44 -1.35 -0.5 -1.32 -0.56 -1.28 -0.61 -1.24 -0.68 -1.21 -0.72 -1.16 -0.78 -1.12 -0.83 -1.08 -0.88 -1.03 -0.92 -0.98 -0.97 -0.94 -1.02 -0.88 -1.05 -0.83 -1.1 -0.77 -1.13 -0.72 -1.17 -0.65 -1.21 -0.6 -1.24 -0.53 -1.27 -0.47 -1.3 -0.4 -1.32 -0.33 -1.36 -0.26 -1.37 -0.19 -1.4 -0.12 -1.42 -0.03 -1.44 0 0zm29.69 -27.95l0 0.55 0 0 -1.5 0.04 -1.48 0.1 -1.46 0.18 -1.44 0.24 -1.41 0.3 -1.38 0.37 -1.35 0.43 -1.33 0.49 -1.29 0.55 -1.26 0.61 -1.22 0.66 -1.18 0.71 -1.14 0.77 -1.1 0.81 -1.06 0.86 -1.01 0.91 -0.97 0.95 -0.91 1 -0.87 1.03 -0.81 1.08 -0.76 1.11 -0.7 1.14 -0.64 1.19 -0.59 1.21 -0.52 1.24 -0.45 1.27 -0.4 1.3 -0.32 1.33 -0.26 1.35 -0.18 1.37 -0.12 1.39 -0.03 1.41 -0.55 0 0.03 -1.44 0.12 -1.42 0.19 -1.4 0.26 -1.38 0.33 -1.35 0.4 -1.33 0.47 -1.3 0.53 -1.27 0.6 -1.24 0.65 -1.2 0.72 -1.17 0.77 -1.14 0.83 -1.09 0.88 -1.06 0.94 -1.01 0.98 -0.97 1.03 -0.93 1.08 -0.87 1.12 -0.83 1.16 -0.78 1.21 -0.73 1.24 -0.67 1.28 -0.62 1.32 -0.56 1.35 -0.5 1.38 -0.44 1.4 -0.37 1.44 -0.31 1.46 -0.25 1.49 -0.18 1.5 -0.11 1.53 -0.03 0 0z"/>
   </g>
   <g>
    <path class="fil0" d="M38.25 43.34c-0.14,0 -0.49,-0.08 -1.08,-0.24 -0.66,-0.19 -1.26,-0.51 -1.79,-0.96l-0.88 -0.75c-0.08,-0.14 -0.17,-0.33 -0.27,-0.58 -0.11,-0.25 -0.2,-0.45 -0.28,-0.58 -0.43,-0.98 -0.65,-1.55 -0.68,-1.71 -0.08,-0.21 -0.17,-0.53 -0.28,-0.96 -0.11,-0.42 -0.2,-0.74 -0.28,-0.95 -0.02,-0.16 -0.07,-0.4 -0.14,-0.72 -0.06,-0.32 -0.12,-0.56 -0.18,-0.71 -0.05,-0.14 -0.1,-0.34 -0.16,-0.62 -0.05,-0.28 -0.1,-0.49 -0.15,-0.62 -0.11,-0.32 -0.16,-0.54 -0.16,-0.68 0,-0.13 -0.12,-0.62 -0.36,-1.47 -0.24,-0.85 -0.39,-1.34 -0.44,-1.47 -0.08,-0.19 -0.16,-0.4 -0.24,-0.64 -0.05,-0.32 -0.12,-0.54 -0.2,-0.68l-0.36 -0.75c-0.21,-0.4 -0.34,-0.6 -0.39,-0.6 -0.06,0 -0.08,-0.05 -0.08,-0.16 0,-0.08 -0.16,-0.3 -0.48,-0.67 -0.32,-0.38 -0.59,-0.63 -0.8,-0.76 -0.21,-0.13 -0.48,-0.23 -0.79,-0.28 -0.3,-0.05 -0.48,-0.12 -0.56,-0.2 -0.05,-0.05 -0.13,-0.08 -0.24,-0.08 -0.11,0 -0.19,0.01 -0.24,0.04 -0.21,0.08 -0.34,0.12 -0.4,0.12 -0.08,0 -0.12,-0.11 -0.12,-0.32 0,-0.16 0.04,-0.26 0.1,-0.32 0.07,-0.05 0.22,-0.1 0.46,-0.16 0.16,-0.05 0.64,-0.1 1.43,-0.15 1.3,-0.14 2.01,-0.3 2.11,-0.48 0.06,-0.11 0.2,-0.16 0.44,-0.16 0.16,0 0.29,-0.05 0.4,-0.16 0.08,-0.08 0.15,-0.12 0.2,-0.12 0.13,0 0.26,-0.09 0.4,-0.28 0.13,-0.19 0.24,-0.28 0.32,-0.28l0.55 -0.56 0.84 -0.87c0.29,-0.37 0.44,-0.57 0.44,-0.6 0,-0.16 0.05,-0.24 0.16,-0.24 0.05,0 0.08,-0.09 0.08,-0.28 0,-0.1 0.06,-0.26 0.19,-0.47 0.11,-0.19 0.19,-0.36 0.24,-0.52l0.16 -0.56c0.03,-0.16 0.06,-0.41 0.1,-0.75 0.04,-0.35 0.08,-0.62 0.1,-0.8 0.03,-0.19 0.04,-0.43 0.04,-0.72 0,-0.53 -0.17,-1.05 -0.52,-1.55 -0.23,-0.32 -0.5,-0.48 -0.79,-0.48 -0.06,0 -0.11,0.03 -0.16,0.08 -0.05,0.08 -0.16,0.12 -0.32,0.12 -0.13,0 -0.32,0.09 -0.56,0.28 -0.1,0.08 -0.27,0.21 -0.5,0.38 -0.22,0.17 -0.4,0.3 -0.53,0.38 -0.48,0.34 -0.87,0.63 -1.16,0.87 -0.26,0.27 -0.53,0.45 -0.79,0.56 -0.24,0.11 -0.36,0.25 -0.36,0.44 -0.05,0.21 -0.09,0.32 -0.12,0.32 -0.08,0 -0.24,0.16 -0.48,0.47 -0.24,0.32 -0.37,0.52 -0.4,0.6 0,0.13 -0.05,0.2 -0.16,0.2 -0.13,0 -0.2,0.09 -0.2,0.28 0,0.16 -0.09,0.33 -0.27,0.52 -0.22,0.16 -0.32,0.29 -0.32,0.39 0,0.06 -0.07,0.21 -0.2,0.46 -0.13,0.25 -0.23,0.41 -0.28,0.46 -0.13,0.13 -0.29,0.4 -0.48,0.8 -0.32,0.53 -0.5,0.81 -0.56,0.83 -0.1,0.05 -0.15,0.15 -0.15,0.28 0,0.11 -0.07,0.23 -0.2,0.36 -0.11,0.11 -0.16,0.28 -0.16,0.52 0,0.21 -0.04,0.34 -0.12,0.39 -0.03,0.03 -0.12,0.2 -0.28,0.5 -0.16,0.31 -0.24,0.49 -0.24,0.54 0,0.03 -0.08,0.23 -0.24,0.6 -0.16,0.37 -0.24,0.58 -0.24,0.63 0,0.06 -0.05,0.16 -0.16,0.32 0,0.03 -0.02,0.1 -0.06,0.2 -0.04,0.11 -0.08,0.24 -0.14,0.4 -0.05,0.16 -0.1,0.3 -0.15,0.44 -0.03,0.1 -0.09,0.28 -0.18,0.52 -0.1,0.23 -0.17,0.42 -0.22,0.55 -0.27,0.72 -0.51,1.65 -0.72,2.79 -0.05,0.42 -0.2,0.98 -0.44,1.67l-0.16 0.64c-0.05,0.21 -0.1,0.42 -0.16,0.62 -0.05,0.19 -0.08,0.33 -0.1,0.39 -0.01,0.07 -0.02,0.12 -0.02,0.14 0,0.24 -0.23,0.41 -0.71,0.52 -0.08,0.03 -0.2,0.04 -0.36,0.04 -0.43,0 -0.73,-0.13 -0.92,-0.4 -0.05,-0.05 -0.08,-0.14 -0.08,-0.28 0,-0.18 0.28,-1.39 0.84,-3.62l0.24 -0.92c0.05,-0.18 0.13,-0.45 0.22,-0.81 0.09,-0.36 0.16,-0.63 0.22,-0.82 0.18,-0.58 0.36,-1.3 0.51,-2.15 0.03,-0.08 0.06,-0.16 0.08,-0.24 0.03,-0.08 0.05,-0.15 0.06,-0.22 0.02,-0.06 0.03,-0.12 0.04,-0.17 0.02,-0.06 0.04,-0.1 0.06,-0.12l0 -0.08 0.08 -0.28c0.16,-0.51 0.26,-0.8 0.28,-0.88 0.13,-0.66 0.2,-1.05 0.2,-1.15 0,-0.11 0.05,-0.37 0.16,-0.8l0.2 -1.15c0.03,-0.29 0.09,-0.65 0.2,-1.08 0.13,-0.53 0.2,-1.95 0.2,-4.26l0 -0.28c-0.06,0 -0.11,-0.12 -0.16,-0.35 -0.11,-0.7 -0.31,-1.27 -0.6,-1.72 -0.18,-0.24 -0.3,-0.42 -0.36,-0.55 -0.1,-0.32 -0.93,-0.5 -2.47,-0.52l-0.71 0c-0.45,0 -0.72,0.04 -0.8,0.12 -0.05,0.13 -0.14,0.2 -0.28,0.2 -0.08,0 -0.25,0.08 -0.51,0.24l-0.52 0.27c-0.11,0.06 -0.23,0.15 -0.36,0.28l-0.44 0.12c-0.02,0 -0.04,0.04 -0.04,0.12 0,0.11 -0.12,0.28 -0.36,0.52 -1.24,1.19 -2.03,2.19 -2.35,2.99 -0.26,0.61 -0.39,1.16 -0.39,1.67 0,0.24 0.04,0.44 0.12,0.59 0.1,0.22 0.16,0.47 0.16,0.76 0,0.37 0.26,0.7 0.79,1 0.27,0.13 0.84,0.2 1.71,0.2 0.67,0 1.06,-0.06 1.2,-0.16 0.13,-0.14 0.3,-0.23 0.52,-0.28 0.02,0 0.05,0 0.07,0l0.08 -0.04c0.06,0 0.08,0.02 0.08,0.08 0,0.18 -0.06,0.28 -0.19,0.28 -0.16,0 -0.31,0.06 -0.44,0.19 -0.22,0.16 -0.4,0.24 -0.56,0.24 -0.16,0 -0.35,0.06 -0.56,0.16 -0.18,0.11 -0.59,0.16 -1.23,0.16 -0.61,0 -1.01,-0.05 -1.2,-0.16l-0.43 -0.2c-0.27,-0.1 -0.5,-0.44 -0.68,-1.01 -0.19,-0.57 -0.28,-1.18 -0.28,-1.81l0 -0.4c0.08,-0.61 0.39,-1.37 0.92,-2.27 0.47,-0.72 1.44,-1.7 2.9,-2.95 0.53,-0.47 1.26,-0.85 2.19,-1.11 0.11,-0.03 0.26,-0.07 0.46,-0.14 0.2,-0.07 0.35,-0.11 0.46,-0.14 0.08,-0.03 0.3,-0.04 0.67,-0.04 0.46,0 1.13,0.04 2.03,0.12 1.07,0.11 1.57,0.27 1.52,0.48 0,0.08 0.05,0.12 0.16,0.12 0.1,0 0.21,0.08 0.32,0.24 0.45,0.66 0.75,0.99 0.91,0.99 0.13,0 0.23,0.19 0.28,0.56 0.05,0.37 0.11,0.58 0.16,0.64 0.05,0.05 0.11,0.26 0.16,0.63 0,0.24 0.04,0.44 0.12,0.6 0.1,0.21 0.16,0.76 0.16,1.63 0,0.72 -0.06,1.09 -0.16,1.12 -0.06,0.02 -0.08,0.13 -0.08,0.32l0 0.19c0,0.64 -0.09,1.31 -0.28,2 -0.08,0.23 -0.12,0.43 -0.12,0.59 0,0.16 0.04,0.24 0.12,0.24 0.05,0 0.12,-0.09 0.2,-0.28 0.08,-0.18 0.25,-0.44 0.52,-0.75 0.21,-0.27 0.31,-0.44 0.31,-0.52 0,-0.11 0.12,-0.31 0.36,-0.6l0.72 -1.15c0.29,-0.51 0.54,-0.89 0.76,-1.16l0.51 -0.75c0.22,-0.27 0.6,-0.65 1.16,-1.16 0.56,-0.5 0.89,-0.75 0.99,-0.75 0.06,0 0.14,-0.08 0.24,-0.24 0.11,-0.16 0.2,-0.24 0.28,-0.24 0.11,0 0.23,-0.07 0.36,-0.2 0.18,-0.16 0.49,-0.39 0.91,-0.68l0.84 -0.52c0.11,0 0.26,0 0.46,-0.02 0.2,-0.01 0.35,-0.02 0.46,-0.02l0.43 0c0.75,0 1.38,0.3 1.92,0.88 0.53,0.58 0.79,1.23 0.79,1.95 0,0.61 -0.13,1.29 -0.4,2.03l-0.08 0.28c-0.05,0.16 -0.2,0.48 -0.45,0.98 -0.26,0.49 -0.42,0.74 -0.5,0.77 -0.05,0.03 -0.09,0.07 -0.12,0.14 -0.03,0.07 -0.05,0.11 -0.08,0.14 -0.05,0.11 -0.21,0.29 -0.48,0.56 -0.05,0.05 -0.11,0.12 -0.18,0.2 -0.06,0.08 -0.12,0.14 -0.16,0.18 -0.04,0.04 -0.07,0.07 -0.1,0.1l-0.04 0.07c0,0.06 -0.06,0.08 -0.2,0.08 -0.1,0 -0.15,0.06 -0.15,0.16 0,0.11 -0.32,0.35 -0.96,0.72l-1.04 0.6c-0.15,0.08 -0.33,0.2 -0.51,0.36l-0.12 0.08c-0.35,0 -0.56,0.09 -0.64,0.27 0,0.06 -0.13,0.11 -0.4,0.16 -0.26,0.06 -0.4,0.11 -0.4,0.16 0,0.06 0.16,0.2 0.46,0.44 0.31,0.24 0.5,0.36 0.58,0.36 0.05,0 0.08,0.03 0.08,0.08 0,0.08 0.07,0.18 0.2,0.32 0.18,0.18 0.45,0.57 0.79,1.15 0.35,0.59 0.52,0.92 0.52,1 0,0.1 0.03,0.16 0.08,0.16 0.11,0 0.2,0.08 0.28,0.25 0.08,0.18 0.13,0.36 0.16,0.54l0 0.28 0.16 0.32c0.13,0.26 0.2,0.42 0.2,0.48 0,0.16 0.04,0.32 0.12,0.47 0.13,0.27 0.2,0.52 0.2,0.76 0.05,0.35 0.1,0.52 0.16,0.52 0.08,0 0.12,0.14 0.12,0.44l0 0.16c0,0.16 0.01,0.23 0.03,0.23 0.06,0 0.11,0.2 0.16,0.6 0,0.35 0.06,0.57 0.16,0.68 0.08,0.08 0.12,0.21 0.12,0.4 0,0.37 0.12,0.94 0.36,1.71l0.08 0.36c0,0.37 0.16,0.91 0.48,1.63l0.16 0.68c0.21,0.77 0.45,1.35 0.71,1.75 0.27,0.4 0.68,0.74 1.24,1.03 0.24,0.14 0.52,0.2 0.83,0.2 0.19,0 0.31,-0.02 0.36,-0.08 0.08,-0.08 0.18,-0.12 0.28,-0.12 0.19,0 0.28,-0.05 0.28,-0.16 0,-0.1 0.04,-0.16 0.12,-0.16 0.19,0 0.46,-0.34 0.84,-1.03l0.23 -0.52c0.11,-0.21 0.16,-0.58 0.16,-1.11 0.03,-0.59 0.11,-0.89 0.24,-0.92 0.03,0 0.06,-0.01 0.08,-0.04l0.08 0c0.16,0 0.32,0.15 0.48,0.44 0.05,0.21 0.08,0.36 0.08,0.44 0,0.02 -0.01,0.07 -0.02,0.14 -0.01,0.06 -0.02,0.12 -0.02,0.18l-0.16 0.71c-0.05,0.29 -0.23,0.69 -0.52,1.18 -0.29,0.49 -0.57,0.84 -0.83,1.05 -0.27,0.27 -0.61,0.51 -1.04,0.74 -0.42,0.22 -0.74,0.34 -0.95,0.34z"/>
    <path id="1" class="fil1 str0" d="M38.25 43.34c-0.14,0 -0.49,-0.08 -1.08,-0.24 -0.66,-0.19 -1.26,-0.51 -1.79,-0.96l-0.88 -0.75c-0.08,-0.14 -0.17,-0.33 -0.27,-0.58 -0.11,-0.25 -0.2,-0.45 -0.28,-0.58 -0.43,-0.98 -0.65,-1.55 -0.68,-1.71 -0.08,-0.21 -0.17,-0.53 -0.28,-0.96 -0.11,-0.42 -0.2,-0.74 -0.28,-0.95 -0.02,-0.16 -0.07,-0.4 -0.14,-0.72 -0.06,-0.32 -0.12,-0.56 -0.18,-0.71 -0.05,-0.14 -0.1,-0.34 -0.16,-0.62 -0.05,-0.28 -0.1,-0.49 -0.15,-0.62 -0.11,-0.32 -0.16,-0.54 -0.16,-0.68 0,-0.13 -0.12,-0.62 -0.36,-1.47 -0.24,-0.85 -0.39,-1.34 -0.44,-1.47 -0.08,-0.19 -0.16,-0.4 -0.24,-0.64 -0.05,-0.32 -0.12,-0.54 -0.2,-0.68l-0.36 -0.75c-0.21,-0.4 -0.34,-0.6 -0.39,-0.6 -0.06,0 -0.08,-0.05 -0.08,-0.16 0,-0.08 -0.16,-0.3 -0.48,-0.67 -0.32,-0.38 -0.59,-0.63 -0.8,-0.76 -0.21,-0.13 -0.48,-0.23 -0.79,-0.28 -0.3,-0.05 -0.48,-0.12 -0.56,-0.2 -0.05,-0.05 -0.13,-0.08 -0.24,-0.08 -0.11,0 -0.19,0.01 -0.24,0.04 -0.21,0.08 -0.34,0.12 -0.4,0.12 -0.08,0 -0.12,-0.11 -0.12,-0.32 0,-0.16 0.04,-0.26 0.1,-0.32 0.07,-0.05 0.22,-0.1 0.46,-0.16 0.16,-0.05 0.64,-0.1 1.43,-0.15 1.3,-0.14 2.01,-0.3 2.11,-0.48 0.06,-0.11 0.2,-0.16 0.44,-0.16 0.16,0 0.29,-0.05 0.4,-0.16 0.08,-0.08 0.15,-0.12 0.2,-0.12 0.13,0 0.26,-0.09 0.4,-0.28 0.13,-0.19 0.24,-0.28 0.32,-0.28l0.55 -0.56 0.84 -0.87c0.29,-0.37 0.44,-0.57 0.44,-0.6 0,-0.16 0.05,-0.24 0.16,-0.24 0.05,0 0.08,-0.09 0.08,-0.28 0,-0.1 0.06,-0.26 0.19,-0.47 0.11,-0.19 0.19,-0.36 0.24,-0.52l0.16 -0.56c0.03,-0.16 0.06,-0.41 0.1,-0.75 0.04,-0.35 0.08,-0.62 0.1,-0.8 0.03,-0.19 0.04,-0.43 0.04,-0.72 0,-0.53 -0.17,-1.05 -0.52,-1.55 -0.23,-0.32 -0.5,-0.48 -0.79,-0.48 -0.06,0 -0.11,0.03 -0.16,0.08 -0.05,0.08 -0.16,0.12 -0.32,0.12 -0.13,0 -0.32,0.09 -0.56,0.28 -0.1,0.08 -0.27,0.21 -0.5,0.38 -0.22,0.17 -0.4,0.3 -0.53,0.38 -0.48,0.34 -0.87,0.63 -1.16,0.87 -0.26,0.27 -0.53,0.45 -0.79,0.56 -0.24,0.11 -0.36,0.25 -0.36,0.44 -0.05,0.21 -0.09,0.32 -0.12,0.32 -0.08,0 -0.24,0.16 -0.48,0.47 -0.24,0.32 -0.37,0.52 -0.4,0.6 0,0.13 -0.05,0.2 -0.16,0.2 -0.13,0 -0.2,0.09 -0.2,0.28 0,0.16 -0.09,0.33 -0.27,0.52 -0.22,0.16 -0.32,0.29 -0.32,0.39 0,0.06 -0.07,0.21 -0.2,0.46 -0.13,0.25 -0.23,0.41 -0.28,0.46 -0.13,0.13 -0.29,0.4 -0.48,0.8 -0.32,0.53 -0.5,0.81 -0.56,0.83 -0.1,0.05 -0.15,0.15 -0.15,0.28 0,0.11 -0.07,0.23 -0.2,0.36 -0.11,0.11 -0.16,0.28 -0.16,0.52 0,0.21 -0.04,0.34 -0.12,0.39 -0.03,0.03 -0.12,0.2 -0.28,0.5 -0.16,0.31 -0.24,0.49 -0.24,0.54 0,0.03 -0.08,0.23 -0.24,0.6 -0.16,0.37 -0.24,0.58 -0.24,0.63 0,0.06 -0.05,0.16 -0.16,0.32 0,0.03 -0.02,0.1 -0.06,0.2 -0.04,0.11 -0.08,0.24 -0.14,0.4 -0.05,0.16 -0.1,0.3 -0.15,0.44 -0.03,0.1 -0.09,0.28 -0.18,0.52 -0.1,0.23 -0.17,0.42 -0.22,0.55 -0.27,0.72 -0.51,1.65 -0.72,2.79 -0.05,0.42 -0.2,0.98 -0.44,1.67l-0.16 0.64c-0.05,0.21 -0.1,0.42 -0.16,0.62 -0.05,0.19 -0.08,0.33 -0.1,0.39 -0.01,0.07 -0.02,0.12 -0.02,0.14 0,0.24 -0.23,0.41 -0.71,0.52 -0.08,0.03 -0.2,0.04 -0.36,0.04 -0.43,0 -0.73,-0.13 -0.92,-0.4 -0.05,-0.05 -0.08,-0.14 -0.08,-0.28 0,-0.18 0.28,-1.39 0.84,-3.62l0.24 -0.92c0.05,-0.18 0.13,-0.45 0.22,-0.81 0.09,-0.36 0.16,-0.63 0.22,-0.82 0.18,-0.58 0.36,-1.3 0.51,-2.15 0.03,-0.08 0.06,-0.16 0.08,-0.24 0.03,-0.08 0.05,-0.15 0.06,-0.22 0.02,-0.06 0.03,-0.12 0.04,-0.17 0.02,-0.06 0.04,-0.1 0.06,-0.12l0 -0.08 0.08 -0.28c0.16,-0.51 0.26,-0.8 0.28,-0.88 0.13,-0.66 0.2,-1.05 0.2,-1.15 0,-0.11 0.05,-0.37 0.16,-0.8l0.2 -1.15c0.03,-0.29 0.09,-0.65 0.2,-1.08 0.13,-0.53 0.2,-1.95 0.2,-4.26l0 -0.28c-0.06,0 -0.11,-0.12 -0.16,-0.35 -0.11,-0.7 -0.31,-1.27 -0.6,-1.72 -0.18,-0.24 -0.3,-0.42 -0.36,-0.55 -0.1,-0.32 -0.93,-0.5 -2.47,-0.52l-0.71 0c-0.45,0 -0.72,0.04 -0.8,0.12 -0.05,0.13 -0.14,0.2 -0.28,0.2 -0.08,0 -0.25,0.08 -0.51,0.24l-0.52 0.27c-0.11,0.06 -0.23,0.15 -0.36,0.28l-0.44 0.12c-0.02,0 -0.04,0.04 -0.04,0.12 0,0.11 -0.12,0.28 -0.36,0.52 -1.24,1.19 -2.03,2.19 -2.35,2.99 -0.26,0.61 -0.39,1.16 -0.39,1.67 0,0.24 0.04,0.44 0.12,0.59 0.1,0.22 0.16,0.47 0.16,0.76 0,0.37 0.26,0.7 0.79,1 0.27,0.13 0.84,0.2 1.71,0.2 0.67,0 1.06,-0.06 1.2,-0.16 0.13,-0.14 0.3,-0.23 0.52,-0.28 0.02,0 0.05,0 0.07,0l0.08 -0.04c0.06,0 0.08,0.02 0.08,0.08 0,0.18 -0.06,0.28 -0.19,0.28 -0.16,0 -0.31,0.06 -0.44,0.19 -0.22,0.16 -0.4,0.24 -0.56,0.24 -0.16,0 -0.35,0.06 -0.56,0.16 -0.18,0.11 -0.59,0.16 -1.23,0.16 -0.61,0 -1.01,-0.05 -1.2,-0.16l-0.43 -0.2c-0.27,-0.1 -0.5,-0.44 -0.68,-1.01 -0.19,-0.57 -0.28,-1.18 -0.28,-1.81l0 -0.4c0.08,-0.61 0.39,-1.37 0.92,-2.27 0.47,-0.72 1.44,-1.7 2.9,-2.95 0.53,-0.47 1.26,-0.85 2.19,-1.11 0.11,-0.03 0.26,-0.07 0.46,-0.14 0.2,-0.07 0.35,-0.11 0.46,-0.14 0.08,-0.03 0.3,-0.04 0.67,-0.04 0.46,0 1.13,0.04 2.03,0.12 1.07,0.11 1.57,0.27 1.52,0.48 0,0.08 0.05,0.12 0.16,0.12 0.1,0 0.21,0.08 0.32,0.24 0.45,0.66 0.75,0.99 0.91,0.99 0.13,0 0.23,0.19 0.28,0.56 0.05,0.37 0.11,0.58 0.16,0.64 0.05,0.05 0.11,0.26 0.16,0.63 0,0.24 0.04,0.44 0.12,0.6 0.1,0.21 0.16,0.76 0.16,1.63 0,0.72 -0.06,1.09 -0.16,1.12 -0.06,0.02 -0.08,0.13 -0.08,0.32l0 0.19c0,0.64 -0.09,1.31 -0.28,2 -0.08,0.23 -0.12,0.43 -0.12,0.59 0,0.16 0.04,0.24 0.12,0.24 0.05,0 0.12,-0.09 0.2,-0.28 0.08,-0.18 0.25,-0.44 0.52,-0.75 0.21,-0.27 0.31,-0.44 0.31,-0.52 0,-0.11 0.12,-0.31 0.36,-0.6l0.72 -1.15c0.29,-0.51 0.54,-0.89 0.76,-1.16l0.51 -0.75c0.22,-0.27 0.6,-0.65 1.16,-1.16 0.56,-0.5 0.89,-0.75 0.99,-0.75 0.06,0 0.14,-0.08 0.24,-0.24 0.11,-0.16 0.2,-0.24 0.28,-0.24 0.11,0 0.23,-0.07 0.36,-0.2 0.18,-0.16 0.49,-0.39 0.91,-0.68l0.84 -0.52c0.11,0 0.26,0 0.46,-0.02 0.2,-0.01 0.35,-0.02 0.46,-0.02l0.43 0c0.75,0 1.38,0.3 1.92,0.88 0.53,0.58 0.79,1.23 0.79,1.95 0,0.61 -0.13,1.29 -0.4,2.03l-0.08 0.28c-0.05,0.16 -0.2,0.48 -0.45,0.98 -0.26,0.49 -0.42,0.74 -0.5,0.77 -0.05,0.03 -0.09,0.07 -0.12,0.14 -0.03,0.07 -0.05,0.11 -0.08,0.14 -0.05,0.11 -0.21,0.29 -0.48,0.56 -0.05,0.05 -0.11,0.12 -0.18,0.2 -0.06,0.08 -0.12,0.14 -0.16,0.18 -0.04,0.04 -0.07,0.07 -0.1,0.1l-0.04 0.07c0,0.06 -0.06,0.08 -0.2,0.08 -0.1,0 -0.15,0.06 -0.15,0.16 0,0.11 -0.32,0.35 -0.96,0.72l-1.04 0.6c-0.15,0.08 -0.33,0.2 -0.51,0.36l-0.12 0.08c-0.35,0 -0.56,0.09 -0.64,0.27 0,0.06 -0.13,0.11 -0.4,0.16 -0.26,0.06 -0.4,0.11 -0.4,0.16 0,0.06 0.16,0.2 0.46,0.44 0.31,0.24 0.5,0.36 0.58,0.36 0.05,0 0.08,0.03 0.08,0.08 0,0.08 0.07,0.18 0.2,0.32 0.18,0.18 0.45,0.57 0.79,1.15 0.35,0.59 0.52,0.92 0.52,1 0,0.1 0.03,0.16 0.08,0.16 0.11,0 0.2,0.08 0.28,0.25 0.08,0.18 0.13,0.36 0.16,0.54l0 0.28 0.16 0.32c0.13,0.26 0.2,0.42 0.2,0.48 0,0.16 0.04,0.32 0.12,0.47 0.13,0.27 0.2,0.52 0.2,0.76 0.05,0.35 0.1,0.52 0.16,0.52 0.08,0 0.12,0.14 0.12,0.44l0 0.16c0,0.16 0.01,0.23 0.03,0.23 0.06,0 0.11,0.2 0.16,0.6 0,0.35 0.06,0.57 0.16,0.68 0.08,0.08 0.12,0.21 0.12,0.4 0,0.37 0.12,0.94 0.36,1.71l0.08 0.36c0,0.37 0.16,0.91 0.48,1.63l0.16 0.68c0.21,0.77 0.45,1.35 0.71,1.75 0.27,0.4 0.68,0.74 1.24,1.03 0.24,0.14 0.52,0.2 0.83,0.2 0.19,0 0.31,-0.02 0.36,-0.08 0.08,-0.08 0.18,-0.12 0.28,-0.12 0.19,0 0.28,-0.05 0.28,-0.16 0,-0.1 0.04,-0.16 0.12,-0.16 0.19,0 0.46,-0.34 0.84,-1.03l0.23 -0.52c0.11,-0.21 0.16,-0.58 0.16,-1.11 0.03,-0.59 0.11,-0.89 0.24,-0.92 0.03,0 0.06,-0.01 0.08,-0.04l0.08 0c0.16,0 0.32,0.15 0.48,0.44 0.05,0.21 0.08,0.36 0.08,0.44 0,0.02 -0.01,0.07 -0.02,0.14 -0.01,0.06 -0.02,0.12 -0.02,0.18l-0.16 0.71c-0.05,0.29 -0.23,0.69 -0.52,1.18 -0.29,0.49 -0.57,0.84 -0.83,1.05 -0.27,0.27 -0.61,0.51 -1.04,0.74 -0.42,0.22 -0.74,0.34 -0.95,0.34z"/>
   </g>
  </g>
 </g>
</svg>
