<?xml version="1.0" encoding="UTF-8"?>
<!DOCTYPE svg PUBLIC "-//W3C//DTD SVG 1.1//EN" "http://www.w3.org/Graphics/SVG/1.1/DTD/svg11.dtd">
<!-- Creator: CorelDRAW 2020 (64 Bit) -->
<svg xmlns="http://www.w3.org/2000/svg" xml:space="preserve" width="1688px" height="521px" version="1.1" style="shape-rendering:geometricPrecision; text-rendering:geometricPrecision; image-rendering:optimizeQuality; fill-rule:evenodd; clip-rule:evenodd"
viewBox="0 0 1686.47 520.97"
 xmlns:xlink="http://www.w3.org/1999/xlink"
 xmlns:xodm="http://www.corel.com/coreldraw/odm/2003">
 <defs>
  <style type="text/css">
   <![CDATA[
    .str0 {stroke:#D9B500;stroke-width:2.36;stroke-miterlimit:22.9256}
    .str1 {stroke:#D9B500;stroke-width:0.9;stroke-miterlimit:22.9256}
    .fil1 {fill:none}
    .fil0 {fill:#D9B500;fill-rule:nonzero}
   ]]>
  </style>
 </defs>
 <g id="Camada_x0020_1">
  <metadata id="CorelCorpID_0Corel-Layer"/>
  <g id="_2060891366896">
   <path class="fil0" d="M841.12 331.84c-0.23,5.87 -1.81,10.95 -4.74,15.24 -2.48,3.83 -6.61,7.28 -12.36,10.33 -5.76,3.04 -14.17,4.57 -25.23,4.57 -11.51,0 -22.63,-2.6 -33.35,-7.79 -10.73,-5.19 -21.22,-11.74 -31.5,-19.64 -10.26,-7.9 -20.37,-16.42 -30.3,-25.57 -9.93,-9.14 -19.87,-17.66 -29.8,-25.56 -9.93,-7.9 -19.86,-14.45 -29.8,-19.64 -9.93,-5.2 -19.97,-7.79 -30.13,-7.79l-8.81 0 0 81.27c0,3.38 0.45,6.09 1.36,8.12 0.9,2.03 1.92,3.62 3.05,4.75 1.12,1.35 2.59,2.36 4.4,3.04l-34.54 0c1.58,-0.68 3.05,-1.69 4.4,-3.04 1.13,-1.13 2.15,-2.72 3.05,-4.75 0.9,-2.03 1.35,-4.74 1.35,-8.12l0 -176.08c0,-3.16 -0.45,-5.82 -1.35,-7.96 -0.9,-2.15 -1.92,-3.78 -3.05,-4.91 -1.35,-1.36 -2.82,-2.26 -4.4,-2.71l75.51 0c7.9,0 15.35,1.58 22.35,4.74 7,3.16 12.98,7.39 17.94,12.7 4.97,5.3 8.81,11.51 11.52,18.62 2.71,7.11 3.83,14.62 3.38,22.52 -0.45,7.22 -2.25,14 -5.41,20.32 -3.17,6.32 -7.17,11.79 -12.03,16.42 -4.85,4.63 -10.55,8.3 -17.09,11.01 -6.55,2.7 -13.44,4.06 -20.66,4.06l-2.37 0c6.09,2.71 12.25,6.88 18.45,12.53 6.21,5.64 12.76,11.79 19.64,18.45 6.89,6.66 14.17,13.55 21.85,20.66 7.67,7.11 15.91,13.54 24.71,19.3 8.81,5.76 18.29,10.49 28.45,14.22 10.16,3.73 21.1,5.59 32.84,5.59 8.35,0 15.3,-0.79 20.83,-2.37 5.53,-1.58 9.87,-3.27 13.04,-5.08 3.83,-2.26 6.77,-4.74 8.8,-7.45zm-196.4 -82.62c6.32,0 12.31,-1.13 17.95,-3.39 5.64,-2.26 10.66,-5.42 15.07,-9.48 4.4,-4.06 7.95,-8.86 10.66,-14.39 2.71,-5.53 4.29,-11.46 4.74,-17.78 0.45,-7 -0.51,-13.66 -2.88,-19.98 -2.37,-6.32 -5.75,-11.85 -10.15,-16.59 -4.41,-4.74 -9.65,-8.46 -15.75,-11.18 -6.09,-2.71 -12.64,-4.06 -19.64,-4.06l-39.62 0 0 96.85 39.62 0zm161.18 28.44c6.78,0 12.42,-0.62 16.94,-1.86 4.51,-1.24 8.12,-2.66 10.83,-4.23 3.16,-1.81 5.64,-3.84 7.45,-6.1l-3.72 18.96 -92.45 0c1.58,-0.68 3.05,-1.69 4.4,-3.05 1.13,-1.12 2.15,-2.7 3.05,-4.73 0.9,-2.04 1.36,-4.75 1.36,-8.13l0 -107.34c0,-3.16 -0.46,-5.82 -1.36,-7.96 -0.9,-2.15 -1.92,-3.78 -3.05,-4.91 -1.35,-1.36 -2.82,-2.26 -4.4,-2.71l92.45 0 0 17.95c-1.81,-2.04 -4.52,-3.84 -8.13,-5.42 -3.16,-1.36 -7.34,-2.65 -12.53,-3.9 -5.19,-1.24 -11.74,-1.86 -19.64,-1.86l-26.41 0 0 54.18 25.05 0c4.52,0 8.13,-0.34 10.84,-1.01 2.71,-0.68 4.85,-1.47 6.43,-2.38 1.81,-0.9 3.16,-2.03 4.07,-3.38l0 23.36c-0.91,-1.8 -2.26,-3.38 -4.07,-4.74 -1.58,-1.13 -3.72,-2.25 -6.43,-3.38 -2.71,-1.13 -6.32,-1.7 -10.84,-1.7l-25.05 0 0 64.34 35.21 0zm106.37 -44.36l50.79 0c5.65,0 10.9,-1.07 15.75,-3.22 4.85,-2.14 9.14,-5.02 12.87,-8.63 3.72,-3.61 6.66,-7.9 8.8,-12.87 2.15,-4.97 3.22,-10.27 3.22,-15.91 0,-5.65 -1.07,-10.9 -3.22,-15.75 -2.14,-4.85 -5.08,-9.09 -8.8,-12.7 -3.73,-3.61 -8.02,-6.49 -12.87,-8.63 -4.85,-2.14 -10.1,-3.22 -15.75,-3.22l-50.79 0 0 80.93zm55.2 113.1c7.44,0 14.5,-1.47 21.16,-4.4 6.66,-2.94 12.36,-6.89 17.1,-11.86 4.74,-4.96 8.46,-10.77 11.17,-17.43 2.71,-6.66 3.95,-13.72 3.73,-21.17 -0.23,-6.99 -1.81,-13.65 -4.74,-19.97 -2.94,-6.33 -6.78,-11.8 -11.51,-16.43 -4.75,-4.63 -10.28,-8.29 -16.6,-11 -6.32,-2.71 -13.09,-4.07 -20.31,-4.07l-55.2 0 0 106.33 55.2 0zm70.09 -54.86c0.23,8.58 -1.18,16.6 -4.23,24.04 -3.05,7.45 -7.28,13.94 -12.7,19.48 -5.42,5.53 -11.85,9.93 -19.3,13.2 -7.45,3.27 -15.35,4.91 -23.71,4.91l-91.08 0c1.58,-0.68 3.04,-1.69 4.4,-3.04 1.13,-1.13 2.14,-2.72 3.05,-4.75 0.9,-2.03 1.35,-4.74 1.35,-8.12l0 -176.08c0,-3.16 -0.45,-5.82 -1.35,-7.96 -0.91,-2.15 -1.92,-3.78 -3.05,-4.91 -1.36,-1.36 -2.82,-2.26 -4.4,-2.71l86.68 0c6.55,0 12.7,1.24 18.46,3.72 5.75,2.49 10.78,5.82 15.07,9.99 4.29,4.18 7.67,9.15 10.15,14.9 2.49,5.76 3.73,11.91 3.73,18.46 0,9.48 -2.54,18.06 -7.62,25.73 -5.08,7.68 -11.57,13.43 -19.47,17.27 6.09,1.81 11.79,4.46 17.1,7.96 5.3,3.5 9.93,7.67 13.88,12.53 3.95,4.85 7.06,10.27 9.31,16.25 2.26,5.99 3.5,12.36 3.73,19.13zm139.89 54.86c6.77,0 12.42,-0.62 16.93,-1.86 4.52,-1.24 8.13,-2.66 10.84,-4.24 3.16,-1.8 5.64,-3.83 7.45,-6.09l-4.07 18.96 -118.85 0c1.58,-0.68 3.05,-1.69 4.4,-3.04 1.13,-1.13 2.15,-2.72 3.05,-4.75 0.9,-2.03 1.35,-4.74 1.35,-8.12l0 -176.08c0,-3.16 -0.45,-5.82 -1.35,-7.96 -0.9,-2.15 -1.92,-3.78 -3.05,-4.91 -1.35,-1.36 -2.82,-2.26 -4.4,-2.71l118.85 0 0 17.95c-1.8,-2.04 -4.51,-3.84 -8.12,-5.42 -3.16,-1.36 -7.28,-2.65 -12.36,-3.9 -5.08,-1.24 -11.57,-1.86 -19.47,-1.86l-53.17 0 0 80.93 51.81 0c4.52,0 8.13,-0.51 10.84,-1.52 2.71,-1.02 4.85,-2.09 6.43,-3.22 1.81,-1.35 3.16,-3.05 4.06,-5.08l0 26.41c-0.9,-1.8 -2.25,-3.38 -4.06,-4.74 -1.58,-1.13 -3.72,-2.25 -6.43,-3.38 -2.71,-1.13 -6.32,-1.7 -10.84,-1.7l-51.81 0 0 106.33 61.97 0zm220.82 0c7,0 12.75,-0.62 17.27,-1.86 4.51,-1.24 8.13,-2.66 10.83,-4.24 3.17,-1.8 5.53,-3.83 7.11,-6.09l-3.72 18.96 -165.24 0c1.58,-0.68 3.05,-1.69 4.4,-3.04 1.13,-1.13 2.14,-2.72 3.05,-4.75 0.9,-2.03 1.35,-4.74 1.35,-8.12l0 -176.08c0,-3.16 -0.45,-5.82 -1.35,-7.96 -0.91,-2.15 -1.92,-3.78 -3.05,-4.91 -1.35,-1.36 -2.82,-2.26 -4.4,-2.71l34.53 0c-1.8,0.45 -3.27,1.35 -4.4,2.71 -1.13,1.13 -2.14,2.76 -3.04,4.91 -0.91,2.14 -1.36,4.8 -1.36,7.96l0 185.22 108.02 0zm-63.32 -61.97c1.58,-0.68 3.05,-1.69 4.4,-3.05 1.13,-1.12 2.15,-2.7 3.05,-4.73 0.9,-2.04 1.35,-4.75 1.35,-8.13l0 -107.34c0,-3.16 -0.45,-5.82 -1.35,-7.96 -0.9,-2.15 -1.92,-3.78 -3.05,-4.91 -1.35,-1.36 -2.82,-2.26 -4.4,-2.71l34.54 0c-1.81,0.45 -3.28,1.35 -4.41,2.71 -1.12,1.13 -2.14,2.76 -3.04,4.91 -0.91,2.14 -1.36,4.8 -1.36,7.96l0 116.48 35.56 0c6.77,0 12.41,-0.62 16.93,-1.86 4.51,-1.24 8.13,-2.66 10.83,-4.23 3.16,-1.81 5.65,-3.84 7.45,-6.1l-4.06 18.96 -92.44 0zm247.57 -138.83c14.22,0 27.65,2.71 40.29,8.12 12.64,5.43 23.7,12.82 33.19,22.19 9.48,9.36 16.93,20.37 22.35,33.01 5.41,12.64 8.12,26.07 8.12,40.3 0,14.44 -2.71,27.99 -8.12,40.63 -5.42,12.64 -12.87,23.65 -22.35,33.01 -9.49,9.37 -20.55,16.77 -33.19,22.19 -12.64,5.41 -26.07,8.12 -40.29,8.12 -14.45,0 -27.99,-2.71 -40.64,-8.12 -12.64,-5.42 -23.64,-12.82 -33.01,-22.19 -9.37,-9.36 -16.76,-20.37 -22.18,-33.01 -5.42,-12.64 -8.13,-26.19 -8.13,-40.63 0,-14.23 2.71,-27.66 8.13,-40.3 5.42,-12.64 12.81,-23.65 22.18,-33.01 9.37,-9.37 20.37,-16.76 33.01,-22.19 12.65,-5.41 26.19,-8.12 40.64,-8.12zm87.02 103.45c0,-12.42 -2.26,-24.5 -6.77,-36.12 -4.52,-11.69 -10.67,-22.01 -18.46,-31.04 -7.78,-9.03 -16.98,-16.26 -27.59,-21.56 -10.61,-5.31 -22.01,-7.96 -34.2,-7.96 -12.19,0 -23.59,2.65 -34.2,7.96 -10.61,5.3 -19.81,12.53 -27.6,21.56 -7.79,9.03 -13.94,19.35 -18.45,31.04 -4.52,11.62 -6.78,23.7 -6.78,36.12 0,12.64 2.26,24.83 6.78,36.45 4.51,11.63 10.66,21.96 18.45,30.88 7.79,8.91 16.99,16.08 27.6,21.39 10.61,5.3 22.01,7.95 34.2,7.95 12.19,0 23.59,-2.65 34.2,-7.95 10.61,-5.31 19.81,-12.48 27.59,-21.39 7.79,-8.92 13.94,-19.25 18.46,-30.88 4.51,-11.62 6.77,-23.81 6.77,-36.45z"/>
   <g>
    <path class="fil1 str0" d="M257.31 1.18c139.04,0 251.75,112.71 251.75,251.75 0,139.04 -112.71,251.76 -251.75,251.76 -139.04,0 -251.75,-112.72 -251.75,-251.76 0,-139.04 112.71,-251.75 251.75,-251.75z"/>
    <path class="fil1 str0" d="M247.93 22.76c136.28,0 246.75,111.26 246.75,248.51 0,137.25 -110.47,248.52 -246.75,248.52 -136.28,0 -246.75,-111.27 -246.75,-248.52 0,-137.25 110.47,-248.51 246.75,-248.51z"/>
    <path class="fil1 str0" d="M262.51 22.76c141.47,0 256.15,107.87 256.15,240.93 0,133.07 -114.68,240.94 -256.15,240.94 -141.46,0 -256.14,-107.87 -256.14,-240.94 0,-133.06 114.68,-240.93 256.14,-240.93z"/>
    <path class="fil0 str1" d="M331.77 376.09c-1.16,0 -4.28,-0.69 -9.36,-2.08 -5.78,-1.62 -10.98,-4.39 -15.6,-8.32l-7.62 -6.59c-0.7,-1.15 -1.51,-2.83 -2.43,-5.02 -0.92,-2.2 -1.73,-3.87 -2.43,-5.03 -3.69,-8.55 -5.66,-13.52 -5.89,-14.9 -0.69,-1.85 -1.5,-4.62 -2.43,-8.32 -0.92,-3.7 -1.73,-6.47 -2.42,-8.32 -0.23,-1.38 -0.64,-3.46 -1.22,-6.24 -0.57,-2.77 -1.09,-4.85 -1.55,-6.24 -0.47,-1.15 -0.93,-2.94 -1.39,-5.37 -0.46,-2.43 -0.93,-4.22 -1.39,-5.37 -0.92,-2.77 -1.38,-4.74 -1.38,-5.89 0,-1.16 -1.04,-5.43 -3.12,-12.83 -2.08,-7.39 -3.35,-11.67 -3.82,-12.82 -0.69,-1.62 -1.38,-3.47 -2.07,-5.55 -0.47,-2.77 -1.04,-4.74 -1.74,-5.89l-3.12 -6.59c-1.85,-3.46 -3,-5.2 -3.46,-5.2 -0.47,0 -0.7,-0.46 -0.7,-1.38 0,-0.69 -1.38,-2.66 -4.16,-5.89 -2.77,-3.24 -5.08,-5.43 -6.93,-6.59 -1.85,-1.16 -4.16,-1.96 -6.93,-2.43 -2.54,-0.46 -4.16,-1.04 -4.85,-1.73 -0.47,-0.46 -1.16,-0.69 -2.08,-0.69 -0.93,0 -1.62,0.11 -2.08,0.34 -1.85,0.7 -3.01,1.04 -3.47,1.04 -0.69,0 -1.04,-0.92 -1.04,-2.77 0,-1.39 0.29,-2.31 0.87,-2.77 0.58,-0.47 1.9,-0.93 3.98,-1.39 1.39,-0.46 5.55,-0.92 12.48,-1.38 11.32,-1.16 17.45,-2.55 18.37,-4.16 0.46,-0.93 1.73,-1.39 3.82,-1.39 1.38,0 2.54,-0.46 3.46,-1.39 0.69,-0.69 1.27,-1.04 1.73,-1.04 1.16,0 2.31,-0.81 3.47,-2.42 1.16,-1.62 2.08,-2.43 2.77,-2.43l4.85 -4.85 7.28 -7.63c2.55,-3.23 3.82,-4.97 3.82,-5.2 0,-1.38 0.46,-2.08 1.38,-2.08 0.47,0 0.7,-0.81 0.7,-2.42 0,-0.93 0.57,-2.31 1.73,-4.16 0.92,-1.62 1.62,-3.12 2.08,-4.51l1.39 -4.85c0.23,-1.39 0.52,-3.58 0.86,-6.59 0.35,-3 0.64,-5.31 0.87,-6.93 0.23,-1.62 0.35,-3.7 0.35,-6.24 0,-4.62 -1.51,-9.12 -4.51,-13.51 -2.08,-2.78 -4.39,-4.16 -6.93,-4.16 -0.47,0 -0.93,0.23 -1.39,0.69 -0.46,0.69 -1.39,1.04 -2.77,1.04 -1.16,0 -2.77,0.81 -4.86,2.43 -0.92,0.69 -2.36,1.79 -4.33,3.29 -1.96,1.5 -3.52,2.6 -4.68,3.29 -4.16,3 -7.51,5.55 -10.05,7.63 -2.31,2.31 -4.62,3.92 -6.93,4.85 -2.08,0.92 -3.12,2.19 -3.12,3.81 -0.46,1.85 -0.81,2.77 -1.04,2.77 -0.69,0 -2.08,1.39 -4.16,4.16 -2.08,2.78 -3.24,4.51 -3.47,5.2 0,1.16 -0.46,1.73 -1.38,1.73 -1.16,0 -1.73,0.82 -1.73,2.43 0,1.39 -0.81,2.89 -2.43,4.51 -1.85,1.38 -2.77,2.54 -2.77,3.46 0,0.47 -0.58,1.79 -1.74,3.99 -1.15,2.19 -1.96,3.52 -2.42,3.99 -1.16,1.15 -2.54,3.46 -4.16,6.93 -2.78,4.62 -4.39,7.05 -4.86,7.28 -0.92,0.46 -1.38,1.27 -1.38,2.42 0,0.93 -0.58,1.97 -1.74,3.12 -0.92,0.93 -1.38,2.43 -1.38,4.51 0,1.85 -0.35,3 -1.04,3.46 -0.23,0.24 -1.04,1.68 -2.43,4.34 -1.38,2.66 -2.08,4.21 -2.08,4.68 0,0.23 -0.69,1.96 -2.08,5.2 -1.38,3.23 -2.08,5.08 -2.08,5.54 0,0.46 -0.46,1.39 -1.38,2.78 0,0.23 -0.18,0.8 -0.52,1.73 -0.35,0.92 -0.75,2.08 -1.22,3.46 -0.46,1.39 -0.92,2.66 -1.38,3.82 -0.23,0.92 -0.75,2.42 -1.56,4.5 -0.81,2.08 -1.45,3.7 -1.91,4.86 -2.31,6.23 -4.39,14.32 -6.24,24.26 -0.46,3.69 -1.73,8.55 -3.81,14.56l-1.39 5.54c-0.46,1.85 -0.92,3.64 -1.38,5.37 -0.47,1.74 -0.75,2.89 -0.87,3.47 -0.11,0.58 -0.17,0.98 -0.17,1.21 0,2.08 -2.08,3.59 -6.24,4.51 -0.7,0.23 -1.73,0.35 -3.12,0.35 -3.7,0 -6.36,-1.16 -7.97,-3.47 -0.46,-0.46 -0.7,-1.27 -0.7,-2.43 0,-1.61 2.43,-12.13 7.28,-31.54l2.08 -7.97c0.46,-1.62 1.1,-3.99 1.91,-7.11 0.81,-3.11 1.44,-5.48 1.91,-7.1 1.61,-5.09 3.11,-11.32 4.5,-18.72 0.23,-0.69 0.46,-1.39 0.69,-2.08 0.23,-0.69 0.41,-1.33 0.52,-1.91 0.12,-0.57 0.23,-1.09 0.35,-1.55 0.12,-0.47 0.29,-0.81 0.52,-1.04l0 -0.7 0.69 -2.42c1.39,-4.39 2.2,-6.93 2.43,-7.63 1.15,-5.78 1.73,-9.13 1.73,-10.05 0,-0.92 0.46,-3.24 1.39,-6.93l1.73 -10.05c0.23,-2.55 0.81,-5.67 1.74,-9.37 1.15,-4.61 1.73,-16.98 1.73,-37.08l0 -2.43c-0.46,0 -0.93,-1.04 -1.39,-3.12 -0.92,-6.01 -2.66,-10.97 -5.2,-14.9 -1.61,-2.08 -2.65,-3.7 -3.12,-4.85 -0.92,-2.78 -8.08,-4.28 -21.49,-4.51l-6.24 0c-3.92,0 -6.23,0.35 -6.93,1.04 -0.46,1.15 -1.27,1.73 -2.42,1.73 -0.7,0 -2.2,0.7 -4.51,2.08l-4.51 2.43c-0.92,0.46 -1.96,1.27 -3.12,2.43l-3.81 1.04c-0.23,0 -0.35,0.34 -0.35,1.04 0,0.92 -1.03,2.42 -3.12,4.5 -10.85,10.4 -17.67,19.06 -20.44,26 -2.32,5.31 -3.47,10.16 -3.47,14.55 0,2.08 0.35,3.82 1.04,5.21 0.92,1.84 1.38,4.04 1.38,6.58 0,3.24 2.32,6.12 6.94,8.66 2.31,1.16 7.28,1.74 14.9,1.74 5.78,0 9.25,-0.47 10.4,-1.39 1.16,-1.15 2.66,-1.96 4.51,-2.43 0.23,0 0.46,0 0.69,0l0.69 -0.34c0.46,0 0.7,0.23 0.7,0.69 0,1.62 -0.58,2.43 -1.74,2.43 -1.38,0 -2.66,0.57 -3.81,1.73 -1.85,1.39 -3.47,2.08 -4.85,2.08 -1.39,0 -3.01,0.46 -4.85,1.39 -1.62,0.92 -5.2,1.38 -10.75,1.38 -5.31,0 -8.78,-0.46 -10.4,-1.38l-3.81 -1.74c-2.31,-0.92 -4.28,-3.87 -5.89,-8.83 -1.62,-4.97 -2.43,-10.23 -2.43,-15.78l0 -3.46c0.69,-5.32 3.35,-11.9 7.97,-19.76 4.16,-6.24 12.6,-14.79 25.31,-25.65 4.62,-4.16 10.97,-7.39 19.06,-9.7 0.92,-0.23 2.25,-0.64 3.98,-1.22 1.74,-0.57 3.07,-0.98 3.99,-1.21 0.7,-0.23 2.66,-0.35 5.89,-0.35 3.93,0 9.82,0.35 17.68,1.04 9.24,0.93 13.63,2.32 13.17,4.16 0,0.7 0.46,1.04 1.39,1.04 0.92,0 1.85,0.7 2.77,2.08 3.93,5.78 6.59,8.67 7.97,8.67 1.16,0 1.97,1.62 2.43,4.85 0.46,3.24 0.92,5.08 1.39,5.55 0.46,0.46 0.92,2.31 1.38,5.54 0,2.08 0.35,3.81 1.04,5.2 0.93,1.85 1.39,6.59 1.39,14.21 0,6.24 -0.46,9.48 -1.39,9.71 -0.46,0.23 -0.69,1.15 -0.69,2.77l0 1.74c0,5.54 -0.81,11.32 -2.43,17.33 -0.69,2.07 -1.04,3.81 -1.04,5.19 0,1.39 0.35,2.08 1.04,2.08 0.47,0 1.04,-0.81 1.74,-2.42 0.69,-1.62 2.19,-3.82 4.5,-6.59 1.85,-2.31 2.78,-3.81 2.78,-4.5 0,-0.93 1.03,-2.66 3.11,-5.2l6.24 -10.06c2.54,-4.38 4.74,-7.74 6.59,-10.05l4.5 -6.58c1.85,-2.31 5.2,-5.66 10.06,-10.05 4.85,-4.4 7.74,-6.59 8.66,-6.59 0.46,0 1.16,-0.69 2.08,-2.08 0.93,-1.39 1.74,-2.08 2.43,-2.08 0.92,0 1.96,-0.58 3.12,-1.73 1.61,-1.39 4.27,-3.35 7.97,-5.89l7.28 -4.51c0.92,0 2.25,-0.06 3.98,-0.17 1.74,-0.12 3.07,-0.18 3.99,-0.18l3.81 0c6.47,0 12.02,2.55 16.64,7.63 4.62,5.08 6.93,10.74 6.93,16.98 0,5.32 -1.15,11.21 -3.46,17.68l-0.7 2.42c-0.46,1.39 -1.79,4.22 -3.98,8.5 -2.2,4.27 -3.64,6.53 -4.33,6.76 -0.47,0.23 -0.82,0.63 -1.05,1.21 -0.23,0.58 -0.46,0.98 -0.69,1.21 -0.46,0.93 -1.85,2.54 -4.16,4.85 -0.46,0.47 -0.98,1.05 -1.56,1.74 -0.57,0.69 -1.04,1.21 -1.38,1.56 -0.35,0.34 -0.64,0.63 -0.87,0.87l-0.35 0.69c0,0.46 -0.58,0.69 -1.73,0.69 -0.93,0 -1.39,0.46 -1.39,1.39 0,0.92 -2.77,3 -8.32,6.24l-9.01 5.2c-1.38,0.69 -2.89,1.73 -4.5,3.12l-1.04 0.69c-3.01,0 -4.86,0.81 -5.55,2.42 0,0.47 -1.15,0.93 -3.47,1.39 -2.31,0.46 -3.46,0.93 -3.46,1.39 0,0.46 1.33,1.73 3.98,3.81 2.66,2.08 4.34,3.12 5.03,3.12 0.46,0 0.69,0.23 0.69,0.69 0,0.7 0.58,1.62 1.74,2.78 1.61,1.61 3.93,4.96 6.93,10.05 3,5.08 4.51,7.97 4.51,8.66 0,0.93 0.23,1.39 0.69,1.39 0.92,0 1.73,0.75 2.42,2.25 0.7,1.5 1.16,3.07 1.39,4.68l0 2.43 1.39 2.77c1.15,2.31 1.73,3.7 1.73,4.16 0,1.39 0.35,2.77 1.04,4.16 1.16,2.31 1.73,4.51 1.73,6.58 0.47,3.01 0.93,4.51 1.39,4.51 0.69,0 1.04,1.27 1.04,3.81l0 1.39c0,1.39 0.11,2.08 0.35,2.08 0.46,0 0.92,1.73 1.38,5.2 0,3 0.46,4.97 1.39,5.89 0.69,0.69 1.04,1.85 1.04,3.47 0,3.23 1.04,8.2 3.12,14.9l0.69 3.12c0,3.24 1.39,7.97 4.16,14.21l1.39 5.9c1.85,6.69 3.92,11.78 6.24,15.24 2.31,3.47 5.89,6.48 10.74,9.02 2.08,1.15 4.51,1.73 7.28,1.73 1.62,0 2.66,-0.23 3.12,-0.69 0.69,-0.69 1.5,-1.04 2.43,-1.04 1.61,0 2.42,-0.47 2.42,-1.39 0,-0.92 0.35,-1.38 1.04,-1.38 1.62,0 4.05,-3.01 7.28,-9.02l2.08 -4.5c0.93,-1.85 1.39,-5.09 1.39,-9.71 0.23,-5.08 0.92,-7.74 2.08,-7.97 0.23,0 0.46,-0.11 0.69,-0.35l0.69 0c1.39,0 2.78,1.27 4.16,3.82 0.46,1.84 0.7,3.12 0.7,3.81 0,0.23 -0.06,0.63 -0.18,1.21 -0.11,0.58 -0.17,1.1 -0.17,1.56l-1.39 6.24c-0.46,2.54 -1.96,5.95 -4.5,10.23 -2.54,4.27 -4.97,7.33 -7.28,9.18 -2.31,2.31 -5.32,4.45 -9.01,6.41 -3.7,1.97 -6.47,2.95 -8.32,2.95z"/>
   </g>
  </g>
 </g>
</svg>
