<?xml version="1.0" encoding="UTF-8"?>
<!DOCTYPE svg PUBLIC "-//W3C//DTD SVG 1.1//EN" "http://www.w3.org/Graphics/SVG/1.1/DTD/svg11.dtd">
<!-- Creator: CorelDRAW 2020 (64 Bit) -->
<svg xmlns="http://www.w3.org/2000/svg" xml:space="preserve" width="1409px" height="1412px" version="1.1" style="shape-rendering:geometricPrecision; text-rendering:geometricPrecision; image-rendering:optimizeQuality; fill-rule:evenodd; clip-rule:evenodd"
viewBox="0 0 1408.65 1411.7"
 xmlns:xlink="http://www.w3.org/1999/xlink"
 xmlns:xodm="http://www.corel.com/coreldraw/odm/2003">
 <defs>
  <style type="text/css">
   <![CDATA[
    .str0 {stroke:#D9B500;stroke-width:0.9;stroke-miterlimit:22.9256}
    .fil1 {fill:none;fill-rule:nonzero}
    .fil0 {fill:#D9B500;fill-rule:nonzero}
   ]]>
  </style>
 </defs>
 <g id="Camada_x0020_1">
  <metadata id="CorelCorpID_0Corel-Layer"/>
  <g id="_2060883258224">
   <g>
    <path class="fil0" d="M1382.79 685.49l-12.94 0 0 0 -0.87 -34.62 -2.6 -34.15 -4.28 -33.66 -5.91 -33.12 -7.51 -32.54 -9.06 -31.91 -10.58 -31.25 -12.04 -30.54 -13.47 -29.79 -14.85 -29 -16.19 -28.16 -17.49 -27.29 -18.76 -26.37 -19.96 -25.41 -21.14 -24.4 -22.27 -23.36 -23.36 -22.27 -24.41 -21.14 -25.4 -19.97 -26.37 -18.75 -27.29 -17.49 -28.17 -16.2 -28.99 -14.85 -29.79 -13.47 -30.55 -12.04 -31.24 -10.57 -31.91 -9.06 -32.54 -7.51 -33.12 -5.92 -33.66 -4.27 -34.16 -2.6 -34.61 -0.88 0 -12.93 35.27 0.89 34.81 2.65 34.3 4.36 33.76 6.03 33.17 7.65 32.53 9.24 31.85 10.78 31.13 12.27 30.37 13.73 29.56 15.14 28.7 16.5 27.82 17.84 26.87 19.11 25.9 20.34 24.87 21.55 23.8 22.7 22.7 23.8 21.54 24.87 20.35 25.9 19.11 26.87 17.83 27.81 16.51 28.71 15.14 29.56 13.72 30.37 12.28 31.13 10.78 31.85 9.23 32.53 7.66 33.17 6.03 33.76 4.36 34.3 2.65 34.81 0.89 35.27 0 0zm-685.49 685.49l0 -12.93 0 0 34.61 -0.88 34.16 -2.6 33.66 -4.27 33.12 -5.92 32.54 -7.51 31.91 -9.06 31.24 -10.57 30.55 -12.04 29.79 -13.47 28.99 -14.86 28.17 -16.19 27.29 -17.49 26.37 -18.75 25.4 -19.97 24.41 -21.14 23.36 -22.27 22.27 -23.36 21.14 -24.4 19.96 -25.41 18.76 -26.37 17.49 -27.29 16.19 -28.16 14.85 -29 13.47 -29.79 12.04 -30.54 10.58 -31.25 9.06 -31.91 7.51 -32.54 5.91 -33.12 4.28 -33.66 2.6 -34.15 0.87 -34.62 12.94 0 -0.89 35.27 -2.65 34.81 -4.36 34.3 -6.03 33.76 -7.66 33.17 -9.23 32.53 -10.78 31.85 -12.28 31.13 -13.72 30.37 -15.14 29.56 -16.51 28.71 -17.83 27.81 -19.11 26.87 -20.35 25.9 -21.54 24.87 -22.7 23.8 -23.8 22.7 -24.88 21.54 -25.89 20.35 -26.87 19.12 -27.82 17.83 -28.7 16.5 -29.56 15.14 -30.37 13.73 -31.13 12.27 -31.85 10.78 -32.53 9.24 -33.17 7.65 -33.76 6.03 -34.3 4.36 -34.81 2.65 -35.27 0.89 0 0zm-685.49 -685.49l12.93 0 0 0 0.88 34.62 2.59 34.15 4.28 33.66 5.92 33.12 7.5 32.54 9.07 31.91 10.57 31.25 12.04 30.54 13.47 29.79 14.85 29 16.2 28.16 17.49 27.29 18.75 26.37 19.97 25.41 21.14 24.4 22.27 23.36 23.36 22.27 24.4 21.14 25.41 19.97 26.37 18.75 27.29 17.49 28.16 16.19 29 14.86 29.79 13.47 30.54 12.04 31.25 10.57 31.91 9.06 32.54 7.51 33.11 5.92 33.66 4.27 34.16 2.6 34.62 0.88 0 12.93 -35.27 -0.89 -34.81 -2.65 -34.31 -4.36 -33.75 -6.03 -33.17 -7.65 -32.53 -9.24 -31.86 -10.78 -31.13 -12.27 -30.36 -13.73 -29.56 -15.14 -28.71 -16.5 -27.81 -17.83 -26.88 -19.12 -25.89 -20.35 -24.87 -21.54 -23.81 -22.7 -22.69 -23.8 -21.55 -24.87 -20.35 -25.9 -19.11 -26.87 -17.83 -27.81 -16.5 -28.71 -15.14 -29.56 -13.73 -30.37 -12.28 -31.13 -10.77 -31.85 -9.24 -32.53 -7.66 -33.17 -6.03 -33.76 -4.35 -34.3 -2.65 -34.81 -0.89 -35.27 0 0zm685.49 -685.49l0 12.93 0 0 -34.62 0.88 -34.16 2.6 -33.66 4.27 -33.11 5.92 -32.54 7.51 -31.91 9.06 -31.25 10.57 -30.54 12.04 -29.79 13.47 -29 14.85 -28.16 16.2 -27.29 17.49 -26.37 18.75 -25.41 19.97 -24.4 21.14 -23.36 22.27 -22.27 23.36 -21.14 24.41 -19.97 25.4 -18.75 26.37 -17.49 27.29 -16.2 28.16 -14.85 29 -13.47 29.79 -12.04 30.54 -10.57 31.25 -9.07 31.91 -7.5 32.54 -5.92 33.12 -4.28 33.66 -2.59 34.15 -0.88 34.62 -12.93 0 0.89 -35.27 2.65 -34.81 4.35 -34.3 6.03 -33.76 7.66 -33.17 9.24 -32.53 10.77 -31.85 12.28 -31.13 13.73 -30.37 15.14 -29.56 16.5 -28.71 17.83 -27.81 19.11 -26.87 20.35 -25.9 21.55 -24.87 22.69 -23.8 23.81 -22.7 24.87 -21.55 25.89 -20.34 26.88 -19.11 27.81 -17.84 28.71 -16.5 29.56 -15.14 30.36 -13.73 31.13 -12.27 31.86 -10.78 32.53 -9.24 33.17 -7.65 33.75 -6.03 34.31 -4.36 34.81 -2.65 35.27 -0.89 0 0z"/>
   </g>
   <g>
    <path class="fil0" d="M1343.99 734.95l-12.94 0 0 0 -0.86 -34.17 -2.54 -33.72 -4.19 -33.22 -5.8 -32.69 -7.36 -32.12 -8.88 -31.49 -10.36 -30.85 -11.8 -30.14 -13.2 -29.4 -14.56 -28.63 -15.87 -27.8 -17.14 -26.93 -18.38 -26.03 -19.57 -25.07 -20.71 -24.09 -21.83 -23.05 -22.89 -21.98 -23.91 -20.87 -24.9 -19.7 -25.84 -18.51 -26.74 -17.27 -27.6 -15.98 -28.42 -14.66 -29.19 -13.29 -29.92 -11.88 -30.62 -10.43 -31.27 -8.95 -31.88 -7.41 -32.46 -5.84 -32.98 -4.22 -33.47 -2.56 -33.92 -0.86 0 -12.94 34.58 0.88 34.13 2.62 33.63 4.3 33.09 5.95 32.52 7.56 31.89 9.12 31.23 10.64 30.52 12.12 29.77 13.56 28.98 14.94 28.14 16.3 27.26 17.61 26.35 18.86 25.38 20.1 24.39 21.27 23.33 22.4 22.25 23.51 21.12 24.55 19.95 25.57 18.73 26.53 17.48 27.45 16.18 28.34 14.84 29.18 13.45 29.98 12.03 30.74 10.57 31.44 9.05 32.12 7.5 32.74 5.91 33.32 4.28 33.87 2.59 34.36 0.88 34.82 0 0zm-672 676.75l0 -12.93 0 0 33.92 -0.87 33.47 -2.56 32.98 -4.22 32.46 -5.84 31.88 -7.41 31.27 -8.94 30.62 -10.44 29.92 -11.88 29.19 -13.29 28.42 -14.66 27.6 -15.98 26.74 -17.27 25.84 -18.5 24.9 -19.71 23.91 -20.86 22.89 -21.98 21.83 -23.06 20.71 -24.09 19.57 -25.07 18.38 -26.03 17.14 -26.93 15.87 -27.8 14.56 -28.63 13.2 -29.4 11.8 -30.14 10.36 -30.85 8.88 -31.5 7.36 -32.11 5.8 -32.69 4.19 -33.23 2.54 -33.71 0.86 -34.17 12.94 0 -0.88 34.81 -2.59 34.37 -4.28 33.87 -5.91 33.32 -7.5 32.74 -9.05 32.12 -10.57 31.44 -12.03 30.74 -13.45 29.98 -14.84 29.18 -16.18 28.34 -17.48 27.45 -18.73 26.54 -19.95 25.56 -21.12 24.56 -22.25 23.5 -23.33 22.41 -24.39 21.27 -25.38 20.09 -26.35 18.87 -27.26 17.6 -28.14 16.3 -28.98 14.94 -29.77 13.56 -30.52 12.12 -31.23 10.64 -31.89 9.12 -32.52 7.56 -33.09 5.95 -33.63 4.31 -34.13 2.61 -34.58 0.88 0 0zm-671.99 -676.75l12.93 0 0 0 0.86 34.17 2.55 33.71 4.19 33.23 5.79 32.69 7.37 32.11 8.88 31.5 10.36 30.85 11.8 30.14 13.2 29.4 14.55 28.63 15.87 27.8 17.15 26.93 18.38 26.03 19.56 25.07 20.72 24.09 21.82 23.06 22.89 21.98 23.92 20.86 24.9 19.71 25.84 18.5 26.74 17.27 27.6 15.98 28.41 14.66 29.19 13.29 29.93 11.88 30.62 10.44 31.27 8.94 31.88 7.41 32.45 5.84 32.98 4.22 33.47 2.56 33.92 0.87 0 12.93 -34.57 -0.88 -34.13 -2.61 -33.63 -4.31 -33.1 -5.95 -32.51 -7.56 -31.9 -9.12 -31.23 -10.64 -30.51 -12.12 -29.77 -13.56 -28.98 -14.94 -28.14 -16.3 -27.27 -17.6 -26.34 -18.87 -25.39 -20.09 -24.38 -21.27 -23.33 -22.41 -22.25 -23.5 -21.12 -24.56 -19.95 -25.56 -18.73 -26.54 -17.48 -27.45 -16.18 -28.34 -14.84 -29.18 -13.46 -29.98 -12.03 -30.74 -10.56 -31.44 -9.06 -32.12 -7.5 -32.74 -5.91 -33.32 -4.27 -33.87 -2.6 -34.37 -0.87 -34.81 0 0zm671.99 -676.75l0 12.94 0 0 -33.92 0.86 -33.47 2.56 -32.98 4.22 -32.45 5.84 -31.88 7.41 -31.27 8.95 -30.62 10.43 -29.93 11.88 -29.19 13.29 -28.41 14.66 -27.6 15.98 -26.74 17.27 -25.84 18.51 -24.9 19.7 -23.92 20.87 -22.89 21.98 -21.82 23.05 -20.72 24.09 -19.56 25.07 -18.38 26.03 -17.15 26.93 -15.87 27.8 -14.55 28.63 -13.2 29.4 -11.8 30.14 -10.36 30.85 -8.88 31.49 -7.37 32.12 -5.79 32.69 -4.19 33.22 -2.55 33.72 -0.86 34.17 -12.93 0 0.87 -34.82 2.6 -34.36 4.27 -33.87 5.91 -33.32 7.5 -32.74 9.06 -32.12 10.56 -31.44 12.03 -30.74 13.46 -29.98 14.84 -29.18 16.18 -28.34 17.48 -27.45 18.73 -26.53 19.95 -25.57 21.12 -24.55 22.25 -23.51 23.33 -22.4 24.38 -21.27 25.39 -20.1 26.34 -18.86 27.27 -17.61 28.14 -16.3 28.98 -14.94 29.77 -13.56 30.51 -12.12 31.23 -10.64 31.9 -9.12 32.51 -7.56 33.1 -5.95 33.63 -4.3 34.13 -2.62 34.57 -0.88 0 0z"/>
   </g>
   <g>
    <path class="fil0" d="M1408.65 714.51l-12.93 0 0 0 -0.89 -33.1 -2.64 -32.65 -4.35 -32.18 -6.01 -31.66 -7.63 -31.11 -9.21 -30.52 -10.75 -29.87 -12.24 -29.21 -13.69 -28.49 -15.11 -27.73 -16.46 -26.94 -17.79 -26.1 -19.08 -25.23 -20.3 -24.3 -21.51 -23.35 -22.65 -22.36 -23.77 -21.31 -24.83 -20.23 -25.85 -19.11 -26.84 -17.95 -27.77 -16.75 -28.66 -15.5 -29.52 -14.22 -30.32 -12.89 -31.09 -11.53 -31.81 -10.13 -32.49 -8.68 -33.13 -7.19 -33.71 -5.66 -34.27 -4.1 -34.78 -2.49 -35.25 -0.83 0 -12.94 35.86 0.85 35.39 2.54 34.88 4.17 34.33 5.76 33.72 7.32 33.08 8.84 32.39 10.31 31.66 11.74 30.88 13.13 30.06 14.48 29.2 15.79 28.29 17.06 27.34 18.29 26.34 19.47 25.31 20.62 24.22 21.72 23.09 22.79 21.93 23.81 20.71 24.78 19.45 25.74 18.15 26.62 16.8 27.49 15.42 28.31 13.97 29.08 12.5 29.82 10.98 30.51 9.41 31.16 7.79 31.77 6.14 32.34 4.44 32.86 2.7 33.35 0.9 33.79 0 0zm-697.33 656.31l0 -12.94 0 0 35.25 -0.83 34.78 -2.49 34.27 -4.1 33.71 -5.66 33.13 -7.19 32.49 -8.68 31.81 -10.13 31.09 -11.53 30.32 -12.89 29.52 -14.22 28.66 -15.5 27.77 -16.75 26.84 -17.95 25.85 -19.11 24.83 -20.23 23.77 -21.31 22.65 -22.36 21.51 -23.35 20.3 -24.31 19.08 -25.22 17.79 -26.1 16.46 -26.94 15.1 -27.74 13.7 -28.49 12.24 -29.2 10.75 -29.88 9.21 -30.51 7.63 -31.11 6.01 -31.66 4.35 -32.18 2.64 -32.66 0.89 -33.09 12.93 0 -0.9 33.78 -2.7 33.35 -4.44 32.87 -6.14 32.34 -7.79 31.77 -9.41 31.16 -10.98 30.51 -12.5 29.82 -13.97 29.08 -15.42 28.3 -16.8 27.49 -18.15 26.63 -19.45 25.73 -20.71 24.79 -21.93 23.81 -23.09 22.79 -24.22 21.72 -25.31 20.62 -26.34 19.47 -27.34 18.28 -28.29 17.07 -29.2 15.79 -30.06 14.48 -30.88 13.13 -31.66 11.74 -32.39 10.31 -33.08 8.84 -33.72 7.32 -34.33 5.76 -34.88 4.17 -35.39 2.54 -35.86 0.85 0 0zm-697.33 -656.31l12.94 0 0 0 0.89 33.09 2.64 32.66 4.34 32.18 6.02 31.66 7.63 31.11 9.21 30.51 10.75 29.88 12.24 29.2 13.69 28.49 15.11 27.74 16.46 26.94 17.79 26.1 19.07 25.22 20.31 24.31 21.5 23.35 22.66 22.36 23.76 21.31 24.84 20.23 25.85 19.11 26.83 17.95 27.78 16.75 28.66 15.5 29.52 14.22 30.32 12.89 31.09 11.53 31.81 10.13 32.49 8.68 33.12 7.19 33.72 5.66 34.27 4.1 34.78 2.49 35.24 0.83 0 12.94 -35.86 -0.85 -35.39 -2.54 -34.88 -4.17 -34.32 -5.76 -33.72 -7.32 -33.08 -8.84 -32.39 -10.31 -31.66 -11.74 -30.88 -13.13 -30.06 -14.48 -29.2 -15.79 -28.29 -17.07 -27.34 -18.28 -26.34 -19.47 -25.31 -20.62 -24.22 -21.72 -23.1 -22.79 -21.92 -23.81 -20.71 -24.79 -19.45 -25.73 -18.15 -26.63 -16.81 -27.49 -15.41 -28.3 -13.98 -29.08 -12.5 -29.82 -10.97 -30.51 -9.41 -31.16 -7.79 -31.77 -6.14 -32.34 -4.44 -32.87 -2.7 -33.35 -0.91 -33.78 0 0zm697.33 -656.31l0 12.94 0 0 -35.24 0.83 -34.78 2.49 -34.27 4.1 -33.72 5.66 -33.12 7.19 -32.49 8.68 -31.81 10.13 -31.09 11.53 -30.32 12.89 -29.52 14.22 -28.66 15.5 -27.78 16.75 -26.83 17.95 -25.85 19.11 -24.84 20.23 -23.76 21.31 -22.66 22.36 -21.5 23.35 -20.31 24.3 -19.07 25.23 -17.79 26.1 -16.46 26.94 -15.11 27.73 -13.69 28.49 -12.24 29.21 -10.75 29.87 -9.21 30.52 -7.63 31.11 -6.02 31.66 -4.34 32.18 -2.64 32.65 -0.89 33.1 -12.94 0 0.91 -33.79 2.7 -33.35 4.44 -32.86 6.14 -32.34 7.79 -31.77 9.41 -31.16 10.97 -30.51 12.5 -29.82 13.98 -29.08 15.41 -28.31 16.81 -27.49 18.15 -26.62 19.45 -25.74 20.71 -24.78 21.92 -23.81 23.1 -22.79 24.22 -21.72 25.31 -20.62 26.34 -19.47 27.34 -18.29 28.29 -17.06 29.2 -15.79 30.06 -14.48 30.88 -13.13 31.66 -11.74 32.39 -10.31 33.08 -8.84 33.72 -7.32 34.32 -5.76 34.88 -4.17 35.39 -2.54 35.86 -0.85 0 0z"/>
   </g>
   <g>
    <path class="fil0" d="M898.12 1017.66c-3.12,0 -11.53,-1.87 -25.24,-5.61 -15.59,-4.36 -29.61,-11.84 -42.07,-22.44l-20.57 -17.76c-1.87,-3.11 -4.05,-7.63 -6.54,-13.55 -2.5,-5.92 -4.68,-10.44 -6.55,-13.56 -9.97,-23.06 -15.27,-36.46 -15.89,-40.2 -1.87,-4.98 -4.05,-12.47 -6.55,-22.44 -2.49,-9.97 -4.67,-17.45 -6.54,-22.43 -0.62,-3.74 -1.72,-9.35 -3.27,-16.83 -1.56,-7.48 -2.96,-13.09 -4.21,-16.82 -1.25,-3.12 -2.49,-7.95 -3.74,-14.5 -1.24,-6.54 -2.49,-11.37 -3.74,-14.49 -2.49,-7.48 -3.74,-12.78 -3.74,-15.89 0,-3.11 -2.8,-14.65 -8.41,-34.59 -5.61,-19.94 -9.04,-31.47 -10.28,-34.59 -1.87,-4.37 -3.74,-9.35 -5.61,-14.96 -1.25,-7.48 -2.81,-12.78 -4.68,-15.89l-8.41 -17.76c-4.99,-9.35 -8.1,-14.03 -9.35,-14.03 -1.25,0 -1.87,-1.25 -1.87,-3.74 0,-1.87 -3.74,-7.16 -11.22,-15.89 -7.48,-8.73 -13.71,-14.64 -18.7,-17.76 -4.98,-3.12 -11.22,-5.3 -18.69,-6.55 -6.86,-1.24 -11.22,-2.8 -13.09,-4.67 -1.25,-1.25 -3.12,-1.87 -5.61,-1.87 -2.49,0 -4.36,0.31 -5.61,0.93 -4.99,1.88 -8.1,2.81 -9.35,2.81 -1.87,0 -2.8,-2.49 -2.8,-7.48 0,-3.74 0.77,-6.23 2.33,-7.48 1.56,-1.25 5.14,-2.49 10.76,-3.74 3.73,-1.25 14.95,-2.49 33.65,-3.74 30.54,-3.11 47.05,-6.86 49.55,-11.22 1.24,-2.49 4.67,-3.73 10.28,-3.73 3.74,0 6.86,-1.25 9.35,-3.75 1.87,-1.87 3.43,-2.8 4.67,-2.8 3.12,0 6.24,-2.18 9.35,-6.54 3.12,-4.37 5.61,-6.55 7.48,-6.55l13.09 -13.09 19.63 -20.57c6.86,-8.72 10.28,-13.4 10.28,-14.02 0,-3.74 1.25,-5.6 3.75,-5.6 1.24,0 1.87,-2.19 1.87,-6.55 0,-2.5 1.56,-6.23 4.67,-11.22 2.49,-4.36 4.36,-8.41 5.61,-12.15l3.74 -13.09c0.63,-3.74 1.4,-9.66 2.34,-17.76 0.93,-8.11 1.71,-14.34 2.33,-18.7 0.62,-4.36 0.94,-9.97 0.94,-16.83 0,-12.46 -4.05,-24.62 -12.16,-36.46 -5.6,-7.48 -11.84,-11.22 -18.69,-11.22 -1.25,0 -2.5,0.62 -3.74,1.87 -1.25,1.87 -3.74,2.81 -7.48,2.81 -3.12,0 -7.48,2.18 -13.09,6.54 -2.49,1.87 -6.39,4.83 -11.69,8.88 -5.29,4.05 -9.5,7.01 -12.61,8.88 -11.22,8.11 -20.26,14.96 -27.12,20.57 -6.23,6.24 -12.46,10.6 -18.69,13.09 -5.61,2.49 -8.42,5.92 -8.42,10.28 -1.25,4.99 -2.18,7.48 -2.8,7.48 -1.87,0 -5.61,3.74 -11.22,11.22 -5.61,7.48 -8.73,12.15 -9.35,14.03 0,3.11 -1.25,4.67 -3.74,4.67 -3.12,0 -4.67,2.18 -4.67,6.54 0,3.74 -2.18,7.79 -6.55,12.16 -4.98,3.74 -7.48,6.85 -7.48,9.34 0,1.25 -1.55,4.83 -4.67,10.76 -3.12,5.91 -5.3,9.5 -6.54,10.74 -3.12,3.12 -6.86,9.36 -11.22,18.7 -7.49,12.47 -11.84,19.01 -13.09,19.63 -2.49,1.25 -3.74,3.43 -3.74,6.55 0,2.5 -1.56,5.29 -4.68,8.41 -2.49,2.5 -3.73,6.55 -3.73,12.16 0,4.99 -0.94,8.1 -2.81,9.34 -0.62,0.63 -2.81,4.52 -6.55,11.69 -3.73,7.17 -5.6,11.38 -5.6,12.62 0,0.62 -1.87,5.3 -5.62,14.02 -3.73,8.73 -5.6,13.72 -5.6,14.96 0,1.25 -1.25,3.75 -3.74,7.48 0,0.62 -0.47,2.18 -1.4,4.68 -0.94,2.49 -2.03,5.61 -3.28,9.34 -1.24,3.75 -2.49,7.18 -3.73,10.29 -0.63,2.49 -2.03,6.54 -4.21,12.15 -2.18,5.61 -3.9,9.98 -5.14,13.09 -6.24,16.83 -11.84,38.64 -16.83,65.44 -1.25,9.97 -4.68,23.06 -10.28,39.27l-3.75 14.96c-1.24,4.98 -2.49,9.81 -3.74,14.48 -1.24,4.68 -2.02,7.8 -2.33,9.35 -0.31,1.56 -0.47,2.65 -0.47,3.28 0,5.6 -5.61,9.66 -16.83,12.15 -1.87,0.62 -4.67,0.93 -8.41,0.93 -9.97,0 -17.14,-3.11 -21.5,-9.35 -1.25,-1.24 -1.87,-3.42 -1.87,-6.54 0,-4.36 6.54,-32.72 19.63,-85.07l5.61 -21.51c1.24,-4.35 2.96,-10.74 5.14,-19.16 2.18,-8.41 3.9,-14.8 5.14,-19.16 4.36,-13.71 8.42,-30.54 12.16,-50.49 0.62,-1.86 1.24,-3.74 1.87,-5.61 0.62,-1.87 1.09,-3.58 1.4,-5.14 0.31,-1.56 0.62,-2.96 0.93,-4.2 0.32,-1.25 0.78,-2.19 1.4,-2.81l0 -1.87 1.87 -6.54c3.75,-11.84 5.93,-18.7 6.55,-20.57 3.11,-15.58 4.67,-24.62 4.67,-27.11 0,-2.49 1.25,-8.73 3.74,-18.7l4.68 -27.11c0.62,-6.85 2.18,-15.27 4.67,-25.25 3.12,-12.46 4.68,-45.8 4.68,-100.02l0 -6.55c-1.25,0 -2.5,-2.8 -3.74,-8.41 -2.5,-16.21 -7.17,-29.61 -14.03,-40.2 -4.36,-5.61 -7.16,-9.97 -8.41,-13.09 -2.49,-7.48 -21.81,-11.53 -57.96,-12.15l-16.83 0c-10.59,0 -16.83,0.93 -18.7,2.8 -1.24,3.12 -3.42,4.68 -6.54,4.68 -1.87,0 -5.92,1.86 -12.15,5.61l-12.16 6.54c-2.49,1.24 -5.3,3.43 -8.41,6.55l-10.29 2.8c-0.62,0 -0.93,0.93 -0.93,2.8 0,2.49 -2.8,6.55 -8.42,12.15 -29.28,28.05 -47.67,51.42 -55.15,70.12 -6.24,14.34 -9.35,27.43 -9.35,39.27 0,5.6 0.93,10.28 2.8,14.02 2.5,4.99 3.74,10.91 3.74,17.76 0,8.73 6.24,16.52 18.7,23.37 6.23,3.12 19.64,4.68 40.2,4.68 15.58,0 24.93,-1.25 28.05,-3.74 3.12,-3.12 7.16,-5.3 12.15,-6.54 0.63,0 1.25,0 1.87,0l1.87 -0.94c1.24,0 1.87,0.62 1.87,1.87 0,4.36 -1.56,6.54 -4.67,6.54 -3.75,0 -7.17,1.56 -10.29,4.68 -4.98,3.74 -9.35,5.61 -13.08,5.61 -3.75,0 -8.11,1.24 -13.09,3.74 -4.37,2.49 -14.03,3.74 -28.99,3.74 -14.33,0 -23.68,-1.25 -28.04,-3.74l-10.29 -4.68c-6.23,-2.49 -11.53,-10.44 -15.89,-23.84 -4.36,-13.39 -6.54,-27.58 -6.54,-42.53l0 -9.35c1.87,-14.34 9.03,-32.1 21.5,-53.29 11.22,-16.83 33.97,-39.89 68.25,-69.18 12.46,-11.22 29.6,-19.94 51.41,-26.18 2.49,-0.62 6.08,-1.71 10.75,-3.27 4.68,-1.56 8.26,-2.65 10.76,-3.27 1.87,-0.62 7.16,-0.94 15.89,-0.94 10.6,0 26.48,0.94 47.68,2.81 24.93,2.49 36.77,6.23 35.52,11.22 0,1.87 1.25,2.8 3.74,2.8 2.49,0 4.99,1.87 7.48,5.61 10.59,15.58 17.76,23.37 21.5,23.37 3.12,0 5.3,4.37 6.55,13.09 1.24,8.73 2.49,13.71 3.73,14.96 1.25,1.25 2.5,6.23 3.74,14.96 0,5.6 0.94,10.28 2.81,14.02 2.49,4.98 3.74,17.76 3.74,38.33 0,16.83 -1.25,25.55 -3.74,26.18 -1.25,0.62 -1.87,3.11 -1.87,7.48l0 4.67c0,14.96 -2.18,30.54 -6.55,46.75 -1.86,5.6 -2.8,10.28 -2.8,14.02 0,3.73 0.94,5.61 2.8,5.61 1.25,0 2.81,-2.19 4.68,-6.55 1.87,-4.36 5.92,-10.28 12.15,-17.76 4.99,-6.23 7.48,-10.28 7.48,-12.15 0,-2.5 2.8,-7.17 8.42,-14.03l16.82 -27.11c6.86,-11.84 12.78,-20.88 17.77,-27.11l12.15 -17.76c4.99,-6.24 14.02,-15.27 27.11,-27.12 13.09,-11.84 20.88,-17.75 23.37,-17.75 1.25,0 3.12,-1.87 5.61,-5.62 2.49,-3.74 4.68,-5.6 6.55,-5.6 2.49,0 5.29,-1.56 8.41,-4.68 4.36,-3.74 11.53,-9.03 21.5,-15.89l19.64 -12.16c2.49,0 6.07,-0.15 10.75,-0.46 4.67,-0.31 8.25,-0.47 10.74,-0.47l10.29 0c17.45,0 32.41,6.86 44.88,20.57 12.46,13.71 18.69,28.98 18.69,45.81 0,14.33 -3.12,30.22 -9.35,47.67l-1.87 6.55c-1.25,3.74 -4.83,11.37 -10.75,22.9 -5.92,11.53 -9.81,17.61 -11.68,18.23 -1.25,0.63 -2.19,1.72 -2.81,3.27 -0.62,1.56 -1.25,2.66 -1.87,3.28 -1.25,2.49 -4.98,6.85 -11.22,13.09 -1.25,1.24 -2.64,2.8 -4.2,4.67 -1.56,1.87 -2.81,3.27 -3.75,4.2 -0.93,0.94 -1.71,1.72 -2.33,2.35l-0.94 1.86c0,1.25 -1.56,1.87 -4.67,1.87 -2.49,0 -3.74,1.25 -3.74,3.74 0,2.5 -7.48,8.1 -22.44,16.83l-24.3 14.02c-3.74,1.87 -7.8,4.68 -12.15,8.42l-2.81 1.87c-8.1,0 -13.09,2.18 -14.96,6.54 0,1.25 -3.12,2.49 -9.35,3.74 -6.23,1.25 -9.35,2.5 -9.35,3.74 0,1.25 3.59,4.67 10.75,10.29 7.17,5.6 11.69,8.41 13.56,8.41 1.25,0 1.87,0.62 1.87,1.87 0,1.87 1.56,4.36 4.67,7.47 4.37,4.37 10.6,13.4 18.7,27.12 8.11,13.71 12.16,21.5 12.16,23.37 0,2.49 0.62,3.74 1.86,3.74 2.5,0 4.68,2.02 6.55,6.08 1.87,4.05 3.12,8.26 3.74,12.61l0 6.55 3.74 7.48c3.11,6.23 4.67,9.97 4.67,11.21 0,3.75 0.94,7.49 2.81,11.22 3.11,6.24 4.67,12.16 4.67,17.77 1.25,8.1 2.49,12.15 3.74,12.15 1.87,0 2.81,3.43 2.81,10.28l0 3.75c0,3.74 0.31,5.6 0.93,5.6 1.25,0 2.49,4.68 3.74,14.02 0,8.11 1.24,13.41 3.74,15.9 1.87,1.87 2.81,4.99 2.81,9.35 0,8.72 2.8,22.12 8.41,40.2l1.87 8.41c0,8.73 3.74,21.5 11.22,38.33l3.74 15.9c4.98,18.07 10.59,31.78 16.82,41.13 6.24,9.35 15.9,17.45 28.98,24.31 5.62,3.11 12.16,4.67 19.64,4.67 4.36,0 7.17,-0.63 8.41,-1.87 1.87,-1.87 4.05,-2.8 6.54,-2.8 4.37,0 6.55,-1.25 6.55,-3.74 0,-2.5 0.93,-3.74 2.8,-3.74 4.36,0 10.91,-8.1 19.64,-24.31l5.6 -12.15c2.5,-4.99 3.74,-13.72 3.74,-26.18 0.63,-13.71 2.5,-20.88 5.62,-21.5 0.62,0 1.24,-0.31 1.86,-0.94l1.87 0c3.74,0 7.48,3.43 11.22,10.28 1.25,4.99 1.87,8.42 1.87,10.29 0,0.62 -0.15,1.72 -0.46,3.28 -0.32,1.55 -0.47,2.95 -0.47,4.2l-3.74 16.82c-1.25,6.86 -5.3,16.06 -12.15,27.59 -6.86,11.53 -13.4,19.79 -19.64,24.77 -6.23,6.24 -14.34,12 -24.31,17.29 -9.97,5.3 -17.44,7.95 -22.43,7.95z"/>
    <path id="1" class="fil1 str0" d="M898.12 1017.66c-3.12,0 -11.53,-1.87 -25.24,-5.61 -15.59,-4.36 -29.61,-11.84 -42.07,-22.44l-20.57 -17.76c-1.87,-3.11 -4.05,-7.63 -6.54,-13.55 -2.5,-5.92 -4.68,-10.44 -6.55,-13.56 -9.97,-23.06 -15.27,-36.46 -15.89,-40.2 -1.87,-4.98 -4.05,-12.47 -6.55,-22.44 -2.49,-9.97 -4.67,-17.45 -6.54,-22.43 -0.62,-3.74 -1.72,-9.35 -3.27,-16.83 -1.56,-7.48 -2.96,-13.09 -4.21,-16.82 -1.25,-3.12 -2.49,-7.95 -3.74,-14.5 -1.24,-6.54 -2.49,-11.37 -3.74,-14.49 -2.49,-7.48 -3.74,-12.78 -3.74,-15.89 0,-3.11 -2.8,-14.65 -8.41,-34.59 -5.61,-19.94 -9.04,-31.47 -10.28,-34.59 -1.87,-4.37 -3.74,-9.35 -5.61,-14.96 -1.25,-7.48 -2.81,-12.78 -4.68,-15.89l-8.41 -17.76c-4.99,-9.35 -8.1,-14.03 -9.35,-14.03 -1.25,0 -1.87,-1.25 -1.87,-3.74 0,-1.87 -3.74,-7.16 -11.22,-15.89 -7.48,-8.73 -13.71,-14.64 -18.7,-17.76 -4.98,-3.12 -11.22,-5.3 -18.69,-6.55 -6.86,-1.24 -11.22,-2.8 -13.09,-4.67 -1.25,-1.25 -3.12,-1.87 -5.61,-1.87 -2.49,0 -4.36,0.31 -5.61,0.93 -4.99,1.88 -8.1,2.81 -9.35,2.81 -1.87,0 -2.8,-2.49 -2.8,-7.48 0,-3.74 0.77,-6.23 2.33,-7.48 1.56,-1.25 5.14,-2.49 10.76,-3.74 3.73,-1.25 14.95,-2.49 33.65,-3.74 30.54,-3.11 47.05,-6.86 49.55,-11.22 1.24,-2.49 4.67,-3.73 10.28,-3.73 3.74,0 6.86,-1.25 9.35,-3.75 1.87,-1.87 3.43,-2.8 4.67,-2.8 3.12,0 6.24,-2.18 9.35,-6.54 3.12,-4.37 5.61,-6.55 7.48,-6.55l13.09 -13.09 19.63 -20.57c6.86,-8.72 10.28,-13.4 10.28,-14.02 0,-3.74 1.25,-5.6 3.75,-5.6 1.24,0 1.87,-2.19 1.87,-6.55 0,-2.5 1.56,-6.23 4.67,-11.22 2.49,-4.36 4.36,-8.41 5.61,-12.15l3.74 -13.09c0.63,-3.74 1.4,-9.66 2.34,-17.76 0.93,-8.11 1.71,-14.34 2.33,-18.7 0.62,-4.36 0.94,-9.97 0.94,-16.83 0,-12.46 -4.05,-24.62 -12.16,-36.46 -5.6,-7.48 -11.84,-11.22 -18.69,-11.22 -1.25,0 -2.5,0.62 -3.74,1.87 -1.25,1.87 -3.74,2.81 -7.48,2.81 -3.12,0 -7.48,2.18 -13.09,6.54 -2.49,1.87 -6.39,4.83 -11.69,8.88 -5.29,4.05 -9.5,7.01 -12.61,8.88 -11.22,8.11 -20.26,14.96 -27.12,20.57 -6.23,6.24 -12.46,10.6 -18.69,13.09 -5.61,2.49 -8.42,5.92 -8.42,10.28 -1.25,4.99 -2.18,7.48 -2.8,7.48 -1.87,0 -5.61,3.74 -11.22,11.22 -5.61,7.48 -8.73,12.15 -9.35,14.03 0,3.11 -1.25,4.67 -3.74,4.67 -3.12,0 -4.67,2.18 -4.67,6.54 0,3.74 -2.18,7.79 -6.55,12.16 -4.98,3.74 -7.48,6.85 -7.48,9.34 0,1.25 -1.55,4.83 -4.67,10.76 -3.12,5.91 -5.3,9.5 -6.54,10.74 -3.12,3.12 -6.86,9.36 -11.22,18.7 -7.49,12.47 -11.84,19.01 -13.09,19.63 -2.49,1.25 -3.74,3.43 -3.74,6.55 0,2.5 -1.56,5.29 -4.68,8.41 -2.49,2.5 -3.73,6.55 -3.73,12.16 0,4.99 -0.94,8.1 -2.81,9.34 -0.62,0.63 -2.81,4.52 -6.55,11.69 -3.73,7.17 -5.6,11.38 -5.6,12.62 0,0.62 -1.87,5.3 -5.62,14.02 -3.73,8.73 -5.6,13.72 -5.6,14.96 0,1.25 -1.25,3.75 -3.74,7.48 0,0.62 -0.47,2.18 -1.4,4.68 -0.94,2.49 -2.03,5.61 -3.28,9.34 -1.24,3.75 -2.49,7.18 -3.73,10.29 -0.63,2.49 -2.03,6.54 -4.21,12.15 -2.18,5.61 -3.9,9.98 -5.14,13.09 -6.24,16.83 -11.84,38.64 -16.83,65.44 -1.25,9.97 -4.68,23.06 -10.28,39.27l-3.75 14.96c-1.24,4.98 -2.49,9.81 -3.74,14.48 -1.24,4.68 -2.02,7.8 -2.33,9.35 -0.31,1.56 -0.47,2.65 -0.47,3.28 0,5.6 -5.61,9.66 -16.83,12.15 -1.87,0.62 -4.67,0.93 -8.41,0.93 -9.97,0 -17.14,-3.11 -21.5,-9.35 -1.25,-1.24 -1.87,-3.42 -1.87,-6.54 0,-4.36 6.54,-32.72 19.63,-85.07l5.61 -21.51c1.24,-4.35 2.96,-10.74 5.14,-19.16 2.18,-8.41 3.9,-14.8 5.14,-19.16 4.36,-13.71 8.42,-30.54 12.16,-50.49 0.62,-1.86 1.24,-3.74 1.87,-5.61 0.62,-1.87 1.09,-3.58 1.4,-5.14 0.31,-1.56 0.62,-2.96 0.93,-4.2 0.32,-1.25 0.78,-2.19 1.4,-2.81l0 -1.87 1.87 -6.54c3.75,-11.84 5.93,-18.7 6.55,-20.57 3.11,-15.58 4.67,-24.62 4.67,-27.11 0,-2.49 1.25,-8.73 3.74,-18.7l4.68 -27.11c0.62,-6.85 2.18,-15.27 4.67,-25.25 3.12,-12.46 4.68,-45.8 4.68,-100.02l0 -6.55c-1.25,0 -2.5,-2.8 -3.74,-8.41 -2.5,-16.21 -7.17,-29.61 -14.03,-40.2 -4.36,-5.61 -7.16,-9.97 -8.41,-13.09 -2.49,-7.48 -21.81,-11.53 -57.96,-12.15l-16.83 0c-10.59,0 -16.83,0.93 -18.7,2.8 -1.24,3.12 -3.42,4.68 -6.54,4.68 -1.87,0 -5.92,1.86 -12.15,5.61l-12.16 6.54c-2.49,1.24 -5.3,3.43 -8.41,6.55l-10.29 2.8c-0.62,0 -0.93,0.93 -0.93,2.8 0,2.49 -2.8,6.55 -8.42,12.15 -29.28,28.05 -47.67,51.42 -55.15,70.12 -6.24,14.34 -9.35,27.43 -9.35,39.27 0,5.6 0.93,10.28 2.8,14.02 2.5,4.99 3.74,10.91 3.74,17.76 0,8.73 6.24,16.52 18.7,23.37 6.23,3.12 19.64,4.68 40.2,4.68 15.58,0 24.93,-1.25 28.05,-3.74 3.12,-3.12 7.16,-5.3 12.15,-6.54 0.63,0 1.25,0 1.87,0l1.87 -0.94c1.24,0 1.87,0.62 1.87,1.87 0,4.36 -1.56,6.54 -4.67,6.54 -3.75,0 -7.17,1.56 -10.29,4.68 -4.98,3.74 -9.35,5.61 -13.08,5.61 -3.75,0 -8.11,1.24 -13.09,3.74 -4.37,2.49 -14.03,3.74 -28.99,3.74 -14.33,0 -23.68,-1.25 -28.04,-3.74l-10.29 -4.68c-6.23,-2.49 -11.53,-10.44 -15.89,-23.84 -4.36,-13.39 -6.54,-27.58 -6.54,-42.53l0 -9.35c1.87,-14.34 9.03,-32.1 21.5,-53.29 11.22,-16.83 33.97,-39.89 68.25,-69.18 12.46,-11.22 29.6,-19.94 51.41,-26.18 2.49,-0.62 6.08,-1.71 10.75,-3.27 4.68,-1.56 8.26,-2.65 10.76,-3.27 1.87,-0.62 7.16,-0.94 15.89,-0.94 10.6,0 26.48,0.94 47.68,2.81 24.93,2.49 36.77,6.23 35.52,11.22 0,1.87 1.25,2.8 3.74,2.8 2.49,0 4.99,1.87 7.48,5.61 10.59,15.58 17.76,23.37 21.5,23.37 3.12,0 5.3,4.37 6.55,13.09 1.24,8.73 2.49,13.71 3.73,14.96 1.25,1.25 2.5,6.23 3.74,14.96 0,5.6 0.94,10.28 2.81,14.02 2.49,4.98 3.74,17.76 3.74,38.33 0,16.83 -1.25,25.55 -3.74,26.18 -1.25,0.62 -1.87,3.11 -1.87,7.48l0 4.67c0,14.96 -2.18,30.54 -6.55,46.75 -1.86,5.6 -2.8,10.28 -2.8,14.02 0,3.73 0.94,5.61 2.8,5.61 1.25,0 2.81,-2.19 4.68,-6.55 1.87,-4.36 5.92,-10.28 12.15,-17.76 4.99,-6.23 7.48,-10.28 7.48,-12.15 0,-2.5 2.8,-7.17 8.42,-14.03l16.82 -27.11c6.86,-11.84 12.78,-20.88 17.77,-27.11l12.15 -17.76c4.99,-6.24 14.02,-15.27 27.11,-27.12 13.09,-11.84 20.88,-17.75 23.37,-17.75 1.25,0 3.12,-1.87 5.61,-5.62 2.49,-3.74 4.68,-5.6 6.55,-5.6 2.49,0 5.29,-1.56 8.41,-4.68 4.36,-3.74 11.53,-9.03 21.5,-15.89l19.64 -12.16c2.49,0 6.07,-0.15 10.75,-0.46 4.67,-0.31 8.25,-0.47 10.74,-0.47l10.29 0c17.45,0 32.41,6.86 44.88,20.57 12.46,13.71 18.69,28.98 18.69,45.81 0,14.33 -3.12,30.22 -9.35,47.67l-1.87 6.55c-1.25,3.74 -4.83,11.37 -10.75,22.9 -5.92,11.53 -9.81,17.61 -11.68,18.23 -1.25,0.63 -2.19,1.72 -2.81,3.27 -0.62,1.56 -1.25,2.66 -1.87,3.28 -1.25,2.49 -4.98,6.85 -11.22,13.09 -1.25,1.24 -2.64,2.8 -4.2,4.67 -1.56,1.87 -2.81,3.27 -3.75,4.2 -0.93,0.94 -1.71,1.72 -2.33,2.35l-0.94 1.86c0,1.25 -1.56,1.87 -4.67,1.87 -2.49,0 -3.74,1.25 -3.74,3.74 0,2.5 -7.48,8.1 -22.44,16.83l-24.3 14.02c-3.74,1.87 -7.8,4.68 -12.15,8.42l-2.81 1.87c-8.1,0 -13.09,2.18 -14.96,6.54 0,1.25 -3.12,2.49 -9.35,3.74 -6.23,1.25 -9.35,2.5 -9.35,3.74 0,1.25 3.59,4.67 10.75,10.29 7.17,5.6 11.69,8.41 13.56,8.41 1.25,0 1.87,0.62 1.87,1.87 0,1.87 1.56,4.36 4.67,7.47 4.37,4.37 10.6,13.4 18.7,27.12 8.11,13.71 12.16,21.5 12.16,23.37 0,2.49 0.62,3.74 1.86,3.74 2.5,0 4.68,2.02 6.55,6.08 1.87,4.05 3.12,8.26 3.74,12.61l0 6.55 3.74 7.48c3.11,6.23 4.67,9.97 4.67,11.21 0,3.75 0.94,7.49 2.81,11.22 3.11,6.24 4.67,12.16 4.67,17.77 1.25,8.1 2.49,12.15 3.74,12.15 1.87,0 2.81,3.43 2.81,10.28l0 3.75c0,3.74 0.31,5.6 0.93,5.6 1.25,0 2.49,4.68 3.74,14.02 0,8.11 1.24,13.41 3.74,15.9 1.87,1.87 2.81,4.99 2.81,9.35 0,8.72 2.8,22.12 8.41,40.2l1.87 8.41c0,8.73 3.74,21.5 11.22,38.33l3.74 15.9c4.98,18.07 10.59,31.78 16.82,41.13 6.24,9.35 15.9,17.45 28.98,24.31 5.62,3.11 12.16,4.67 19.64,4.67 4.36,0 7.17,-0.63 8.41,-1.87 1.87,-1.87 4.05,-2.8 6.54,-2.8 4.37,0 6.55,-1.25 6.55,-3.74 0,-2.5 0.93,-3.74 2.8,-3.74 4.36,0 10.91,-8.1 19.64,-24.31l5.6 -12.15c2.5,-4.99 3.74,-13.72 3.74,-26.18 0.63,-13.71 2.5,-20.88 5.62,-21.5 0.62,0 1.24,-0.31 1.86,-0.94l1.87 0c3.74,0 7.48,3.43 11.22,10.28 1.25,4.99 1.87,8.42 1.87,10.29 0,0.62 -0.15,1.72 -0.46,3.28 -0.32,1.55 -0.47,2.95 -0.47,4.2l-3.74 16.82c-1.25,6.86 -5.3,16.06 -12.15,27.59 -6.86,11.53 -13.4,19.79 -19.64,24.77 -6.23,6.24 -14.34,12 -24.31,17.29 -9.97,5.3 -17.44,7.95 -22.43,7.95z"/>
   </g>
  </g>
 </g>
</svg>
